<?xml version="1.0" encoding="UTF-8"?>
<!DOCTYPE svg PUBLIC "-//W3C//DTD SVG 1.1//EN" "http://www.w3.org/Graphics/SVG/1.1/DTD/svg11.dtd">
<!-- Creator: CorelDRAW X7 -->
<svg xmlns="http://www.w3.org/2000/svg" xml:space="preserve" width="11.6929in" height="8.26772in" version="1.1" style="shape-rendering:geometricPrecision; text-rendering:geometricPrecision; image-rendering:optimizeQuality; fill-rule:evenodd; clip-rule:evenodd"
viewBox="0 0 11693 8268"
 xmlns:xlink="http://www.w3.org/1999/xlink">
 <defs>
  <style type="text/css">
   <![CDATA[
    .fil0 {fill:#A83032}
   ]]>
  </style>
 </defs>
 <g id="Layer_x0020_1">
  <metadata id="CorelCorpID_0Corel-Layer"/>
  <g>
   <path class="fil0" d="M5070 4462c11,-35 -3,-56 -22,-64 -3,-1 -7,-2 -11,-2 -7,-1 -14,0 -21,3 -17,8 -29,28 -16,62 3,9 9,19 17,27 9,10 20,19 32,26l0 -1 0 1c7,3 13,7 20,9l0 0c7,2 13,4 19,5 3,0 5,1 8,1l0 0 0 0c12,1 21,-1 29,-5 31,-17 29,-63 0,-75l0 0 0 0 -1 0c-2,0 -4,-1 -6,-1l0 0 0 0c-12,-2 -28,2 -47,15l1 -2 -1 0 0 0 -1 1zm630 -1558l19 0 0 3 -1 0c-2,0 -3,0 -3,0 -1,1 -1,1 -2,2 0,1 0,2 0,4l0 30c0,2 0,3 0,4 1,0 1,1 2,1 0,0 1,0 3,0l1 0 0 4 -19 0 0 -4 2 0c1,0 2,0 3,0 0,0 0,-1 1,-1 0,-1 0,-2 0,-4l0 -31c0,-2 0,-3 0,-3l-1 -2c-1,0 -2,0 -3,0l-2 0 0 -3zm-100 80l19 0 0 2 -1 0c-2,0 -2,1 -3,1 -1,0 -1,1 -2,2 0,0 0,1 0,3l0 31c0,2 0,3 0,3 1,1 1,1 2,2 0,0 1,0 3,0l1 0 0 3 -19 0 0 -3 1 0c2,0 3,0 4,0 0,-1 1,-1 1,-1 0,-1 0,-2 0,-4l0 -31c0,-2 0,-3 0,-4 0,0 -1,-1 -1,-1 -1,-1 -2,-1 -4,-1l-1 0 0 -2zm-63 1l3 0 0 1 31 0 0 -1 2 0 6 13 -3 2c-2,-5 -4,-7 -6,-9 -2,-1 -5,-2 -8,-2 -1,0 -2,0 -3,1 0,0 0,0 0,0l0 2 0 33 0 3c0,0 0,1 1,1 0,1 1,1 1,1 1,0 2,0 4,0l0 3 -19 0 0 -3c2,0 3,0 4,0 1,0 1,-1 2,-1 0,-1 0,-2 0,-4l0 -33 0 -2c0,0 0,0 -1,0 0,0 -1,-1 -2,-1 -2,0 -4,1 -5,1 -2,1 -4,2 -5,4 -1,1 -3,3 -4,6l-3 -2 5 -13zm-11 -78l13 0 28 34 0 -26c0,-3 -1,-5 -1,-6 -1,-1 -3,-1 -4,-1l-2 0 0 -1 16 0 0 1 -1 0c-3,0 -4,1 -5,1 0,1 0,3 0,6l0 38 -2 0 -30 -37 0 29c0,3 0,4 1,5 1,1 2,2 4,2l1 0 0 0 -15 0 0 0 1 0c2,0 4,-1 4,-2 0,-1 1,-3 1,-5l0 -32c-1,-2 -2,-3 -3,-4 -1,0 -2,0 -3,-1 -1,0 -2,0 -3,0l0 -1zm-24 -38c6,0 11,2 16,7 4,4 6,10 6,16 0,8 -2,13 -6,18 -5,5 -10,7 -16,7l0 -2c4,0 8,-2 10,-6 3,-3 4,-9 4,-16 0,-7 -1,-13 -4,-17 -3,-3 -6,-5 -10,-5l0 -2 0 0zm0 48l0 -2c-5,0 -8,-2 -10,-5 -4,-5 -5,-10 -5,-18 0,-7 1,-12 5,-16 2,-4 5,-5 10,-5l0 -2c-6,0 -11,2 -15,6 -5,4 -8,10 -8,17 0,8 2,13 7,18 4,5 9,7 16,7zm160 80l-8 0 0 -3 7 0 -7 -19 0 1 0 -8 1 -3 2 0 14 38c1,3 2,6 3,6 1,1 3,2 4,2l0 1 -16 0 0 -1c1,0 2,-1 3,-1 1,-1 1,-1 1,-2 0,-1 0,-3 -1,-5l-3 -6zm-8 0l0 -3 -7 0 7 -18 0 -8 -13 35c-2,3 -3,6 -4,6 0,1 -2,1 -3,2l0 1 13 0 0 -1c-2,0 -3,-1 -4,-1 0,-1 -1,-1 -1,-2 0,-1 1,-2 1,-4l3 -7 8 0zm28 -1l37 0 4 12 -2 1c-1,-2 -2,-4 -2,-5 -1,-1 -2,-2 -4,-3 0,0 -2,-1 -3,-1 -1,0 -3,0 -7,0l-10 0 0 17 8 0c2,0 3,-1 4,-1 2,-1 2,-2 3,-3 0,-1 0,-2 0,-4l0 -1 3 0 0 21 -3 0 0 -2c0,-2 0,-3 0,-4 0,0 -1,-1 -2,-1 0,-1 -1,-1 -2,-2 0,0 -1,0 -3,0l-8 0 0 15 0 3c0,0 0,1 1,1 0,0 0,0 2,0l7 0c4,0 6,0 9,-1 2,-1 4,-3 5,-5 2,-1 3,-3 4,-6l3 1 -5 15 -39 0 0 -3 2 0 3 0c0,-1 1,-1 1,-2 0,0 0,-1 0,-3l0 -32c0,-2 0,-3 0,-3 0,0 -1,-1 -2,-1 0,0 -1,0 -4,0l0 -3zm-247 -11l37 0 4 13 -3 1c0,-2 -1,-4 -2,-5 -1,-1 -2,-2 -3,-3 -1,-1 -3,-1 -4,-1 -1,0 -3,-1 -6,-1l-11 0 0 17 8 0c2,0 4,0 4,-1 2,0 2,-1 3,-2 0,-1 0,-3 0,-4l0 -1 3 0 0 21 -3 0 0 -2c0,-2 0,-3 0,-4 0,0 -1,-1 -1,-2 -1,0 -2,-1 -2,-1l-4 0 -8 0 0 15 0 3c0,0 0,0 1,1l2 0 7 0c4,0 7,-1 9,-2 2,0 4,-2 6,-4 1,-1 2,-4 3,-6l3 1 -5 14 -38 0 0 -2 1 0c2,0 3,0 3,-1 1,0 1,-1 1,-1l0 -3 0 -32c0,-2 0,-3 0,-3 0,-1 0,-1 -1,-1 -1,0 -2,-1 -4,-1l0 -3zm189 -84l0 16 -1 0c-1,-3 -2,-5 -3,-7 0,-2 -2,-3 -4,-5 -2,0 -4,-1 -6,-1 -3,0 -5,1 -7,2 -1,2 -2,3 -2,5 0,1 0,3 1,4 2,2 5,4 11,7 4,2 7,4 9,5 2,1 3,2 4,4 1,2 1,4 1,6 0,3 -1,6 -4,8 -3,3 -7,4 -11,4 -1,0 -2,0 -4,0 -1,0 -2,-1 -4,-2 -3,0 -4,0 -5,0 0,0 -1,0 -1,0 -1,0 -1,1 -1,2l-1 0 0 -15 1 0c1,3 1,5 3,7 1,2 2,3 4,4 2,1 5,2 7,2 3,0 6,-1 7,-3 2,-1 3,-3 3,-5 0,-1 -1,-2 -1,-3 0,-2 -2,-2 -3,-3 -1,-1 -3,-3 -7,-5 -5,-2 -8,-4 -9,-5 -2,-1 -4,-3 -5,-4 0,-2 -1,-4 -1,-6 0,-3 1,-6 4,-8 3,-2 6,-4 11,-4 2,0 5,1 8,2 1,1 2,1 2,1 1,0 1,0 2,0 0,-1 1,-2 1,-3l1 0zm51 -25l1 15 -1 0c-1,-4 -3,-7 -6,-10 -2,-1 -5,-3 -9,-3 -3,0 -6,1 -8,3 -2,1 -4,4 -5,7 -2,3 -3,8 -3,13 0,4 1,8 3,11 1,3 3,5 5,7 3,1 6,2 9,2 3,0 6,-1 8,-2 2,-1 4,-4 7,-7l1 0c-2,4 -5,7 -8,9 -3,2 -6,3 -10,3 -8,0 -13,-3 -17,-9 -3,-4 -5,-9 -5,-14 0,-5 1,-9 3,-13 2,-4 5,-7 8,-9 4,-2 8,-3 12,-3 3,0 6,1 9,2 1,1 2,1 2,1 1,0 1,0 2,0 0,-1 1,-2 1,-3l1 0zm-202 25l1 16 -1 0c-1,-5 -3,-8 -5,-10 -3,-2 -5,-3 -9,-3 -3,0 -5,1 -8,2 -2,2 -4,4 -5,8 -1,3 -2,7 -2,12 0,4 1,8 2,11 1,3 3,6 5,7 3,2 6,3 9,3 3,0 5,-1 7,-2 2,-2 5,-4 7,-8l1 1c-2,4 -5,7 -7,9 -3,1 -6,2 -10,2 -8,0 -13,-2 -17,-8 -2,-4 -4,-9 -4,-15 0,-4 1,-9 3,-12 2,-4 5,-7 8,-9 3,-3 7,-4 11,-4 3,0 6,1 9,3 0,1 1,1 1,1 1,0 1,0 2,-1 1,-1 1,-2 1,-3l1 0zm8 68l13 0 28 35 0 -27c0,-3 -1,-5 -1,-6 -1,0 -2,-1 -4,-1l-1 0 0 -1 15 0 0 1 -1 0c-2,0 -4,1 -5,2 0,1 0,2 0,5l0 39 -1 0 -31 -37 0 28c0,3 0,5 1,5 1,1 3,2 4,2l2 0 0 1 -16 0 0 -1 1 0c2,0 4,-1 4,-2 1,-1 1,-3 1,-5l0 -32c-1,-2 -2,-3 -3,-3 0,-1 -2,-1 -3,-1 -1,-1 -2,-1 -3,-1l0 -1zm105 -99l0 200c2,-2 5,-5 8,-7l0 0 0 0c11,-11 22,-18 32,-22l0 0 1 0 1 -1c4,-1 8,-2 13,-2l0 0 0 0 0 0 1 0 0 0c9,0 18,3 28,9l0 0 1 1 0 0 0 0 0 0c2,1 3,2 5,3 3,2 6,4 9,6l0 0 1 0 0 0 1 1 0 0 1 1 0 0 1 0 0 0c7,4 14,6 21,7 5,1 10,1 15,-1l0 0 0 0 1 0 0 0c6,-2 11,-5 17,-10 0,-13 0,-26 0,-39l0 0c0,-18 0,-37 0,-56 0,-32 0,-65 0,-98l0 -2c-9,4 -18,8 -27,9 -9,1 -18,-1 -27,-9 -20,-15 -38,-20 -56,-18 -17,2 -33,12 -47,28zm0 207l0 21 0 -1 0 -1 1 0 0 -1c11,-16 23,-29 36,-35l0 0 1 0 0 0 1 0 0 -1 1 0 0 0c3,-1 6,-2 9,-2l1 0 0 0 1 0 0 0 1 -1 0 0 0 0 0 0 1 0 0 0 1 0 0 0 1 0 0 0 1 0c11,0 23,4 37,14l0 0 0 0c2,2 5,4 7,6l1 0 0 0 1 1 0 0c9,6 18,9 28,8l0 0 1 0 1 0 0 0 0 0 0 0 1 0 0 0 0 0 0 0c13,-1 26,-8 39,-20l0 -185 0 -3 0 0 0 -3 -12 -8c0,30 -1,60 -1,91 0,19 0,37 0,55l0 0 0 2 0 0c0,14 0,29 0,44l0 2 -1 1 0 0c-11,9 -21,13 -32,12l0 0 -1 0 0 0 0 0 -1 0 0 0 -1 -1 0 0 -1 0 0 0 0 0 -1 0 0 0 0 0 -1 0 -1 0 0 0 -1 -1 0 0c-9,-2 -19,-7 -29,-14 -5,-3 -9,-6 -14,-8l0 0 0 0 0 0 -1 0 0 0 -1 -1 0 0 -1 0 0 0c-11,-4 -21,-4 -30,-1 -14,4 -27,15 -42,30zm-2 23l0 -23c-14,-16 -28,-26 -43,-30l-1 0 0 0 -1 0 0 0 0 0 0 0 -1 0 0 0 -2 -1 0 0 0 0c-2,0 -3,0 -5,0l0 0 -1 0 0 0 0 0 0 0 -1 0c-2,0 -4,0 -6,0l0 0 -1 0c-1,0 -2,0 -2,1l0 0 -1 0c-1,0 -2,0 -3,0l0 0 0 0 0 0 -1 1 0 0 -1 0 0 0 -1 0 0 0 -1 0 0 0 0 0 0 0 -1 1 0 0 -1 0 0 0 -1 0 0 0 -1 1 0 0 0 0 0 0 -1 0 0 0 -1 0 0 0 -1 1 0 0 -1 0 0 0c-4,2 -9,5 -14,8 -1,0 -2,1 -3,1l0 0c-1,1 -2,2 -3,2l0 0 -1 1 0 0 -1 0 0 0 0 0 0 0 -1 1 0 0 -1 0 0 0 0 0 0 0 -1 1 -1 0 0 0c-1,1 -2,1 -3,2l0 0c-1,0 -3,1 -4,1l0 0c-1,1 -3,1 -4,1l0 0 -1 1 0 0 -1 0 0 0 0 0 0 0 -1 0 0 0 -1 0 0 0 0 1 0 0 -2 0 0 0 0 0 0 0 -1 0 0 0 -1 0 0 0 -1 0 0 0 0 0 0 0 -1 0 0 0 -1 0 0 0 0 0 0 0 -1 0 0 0 0 0 0 0 -1 0 0 0 0 0 0 0 -1 0 0 0 0 0 0 0 -1 0 0 0 0 0 -1 0 0 0 0 0c-8,0 -14,-3 -21,-7l0 0 0 0 0 0 0 0 -1 -1 0 0 0 0 -1 0 0 0 0 0 0 0 0 -1 0 0 -1 0 0 0 -1 -1 0 0 0 0 -1 0 0 -1 -1 0 0 0 0 -1 0 -2 0 -191 -14 9 3 190c8,9 16,14 24,17l0 0c1,1 2,1 2,1l0 0 2 1 0 0 1 0 0 0 0 0 0 0 1 0 0 0 1 0 0 0 0 0 0 0 1 1 0 0 0 0 1 0 1 0 0 0 0 0 0 0 1 0 0 0 1 0 0 0 1 0 1 0 0 0 1 0 0 0 0 0 0 0 1 0 0 0 1 0 0 0 0 0 1 0 0 0 0 0 0 0 1 0 0 0 1 0 0 0c10,0 21,-5 32,-13l0 0 0 0 1 -1 1 -1 0 0 1 0 1 -1 1 -1 0 0 2 0 0 0c1,-1 2,-2 3,-2l0 0 2 -1 0 0c18,-10 33,-12 45,-7 7,3 13,7 18,12l0 0 1 1 0 0 0 1 0 0 1 0 0 0 1 1 0 0 0 1 0 0 1 0 0 0c5,7 10,14 14,23l0 0 1 1 0 1 0 0 1 1zm0 -30l0 -200c-16,-13 -31,-23 -46,-27 -16,-3 -31,0 -45,12 -11,8 -23,12 -34,13 -11,1 -22,-1 -33,-7l0 1 0 192c5,4 10,7 16,9l0 0 0 0 0 0 1 0 0 0 0 0 0 0 0 1 1 0 0 0 0 0 1 0 0 0 1 0 0 0 0 0 0 0 1 0 0 0 0 0 0 0 1 0 0 0 1 1 0 0 0 0 0 0 1 0 0 0 1 0 0 0 0 0 0 0 1 0 0 0 0 0 0 0c11,0 23,-3 38,-13 12,-8 24,-12 35,-12l0 0 1 0 0 0c5,-1 10,0 15,1 1,0 2,0 3,1l0 0 0 0 1 0 0 0c14,4 27,14 39,28zm-51 -8c-12,-1 -26,4 -41,15l0 0 -1 0 -1 1 -1 1 0 0c-7,4 -13,8 -20,10l0 0 -1 0 0 0 0 1 0 0 -1 0 0 0 -1 0 0 0 0 0 0 0 -1 0 0 0 0 0 -1 1 -1 0 0 0 0 0 -1 0 0 0 0 0 0 0 -1 0 0 0 -1 0 0 0 0 0 0 0 -1 0 0 0 0 1 0 0 -1 0 0 0 -1 0 0 0 0 0 0 0 -1 0 0 0 0 0 -1 0 0 0 0 0 -1 0 0 0 0 0 0 0 -1 0 0 0 -1 0 0 0 0 0 0 0 -1 0 0 0 0 0 -2 0 0 0c-10,-1 -20,-6 -30,-14l0 0 -1 -1 0 0 -1 -1 0 0 0 0 -1 -1 -1 -1 0 0 0 0 -1 -1 0 0 -1 -1 -1 -1 0 0 -1 -3 -2 -128 -1 -57 -5 0 0 191c11,13 23,22 37,26 13,4 27,2 41,-5 6,-3 10,-6 15,-9 9,-7 18,-14 32,-14 7,-1 14,1 20,5 6,3 11,8 16,14l5 6 -5 0c-6,0 -9,3 -11,7 0,2 -1,3 -1,4 0,1 1,3 1,4 2,4 5,8 10,8l23 0 0 3 0 -3 23 0c4,-1 6,-4 8,-6 1,-2 1,-4 1,-5 0,-2 -1,-4 -2,-6 -1,-3 -4,-5 -7,-6l-3 0 2 -6c3,-7 7,-12 14,-16 6,-3 14,-5 26,-4 13,2 21,8 29,15 7,6 15,12 27,14 9,2 20,0 31,-4 10,-4 22,-11 33,-20l0 -193 -8 0 0 185 0 2 0 0 -1 1 0 0c-11,10 -22,16 -32,19l0 0c-1,0 -1,0 -2,0l0 0 0 1 0 0 -2 0 0 0 0 0 0 0 -1 0 0 0 -1 0 0 0 0 0 0 0 -1 0 0 0 -1 0 0 0 0 1 0 0 -1 0 0 0 0 0 0 0 -1 0 -1 0 0 0 -1 0 -1 0 0 0 -1 0 0 0 -1 0 0 0 -1 0 0 0 0 0 0 0 -1 0 0 0 -1 0 0 0 0 -1 0 0 -1 0 0 0 0 0 0 0 -1 0 0 0c-1,0 -1,0 -2,0l0 0c-6,-1 -12,-4 -17,-8l0 0 -1 0 0 0 0 -1 0 0 -1 0 0 0 -1 0 0 0 0 -1 0 0c-2,-1 -4,-3 -6,-5 -2,-1 -4,-3 -6,-4l0 0 -1 0 0 0c-12,-7 -23,-10 -34,-9l0 0 -1 0 0 0 -1 0 0 0 -1 0 0 0 -1 0 0 0 0 0 0 0 -1 0 0 0 -2 1 0 0 0 0 0 0c-1,0 -2,0 -3,1l0 0 0 0 0 0 -1 0 0 0 -1 0 0 0 -1 1 0 0 0 0 -1 0 0 0 -1 0 0 1 0 0 0 0c-4,2 -8,4 -12,7l0 0 0 0 -1 1 0 0 0 0 0 0 -1 1 0 0 -1 0 0 0 0 1 0 0 -1 0 0 0 -1 1 0 0 0 1 0 0 -1 0 0 0 0 1 -1 0 0 0 0 1 -1 0 0 0 0 1 0 0 -1 0 0 1 0 0 -1 0 0 1 0 0 -1 1 0 0 -1 0 0 1 0 0 -1 1 0 0 0 0 -1 1 0 0 0 0 -1 1 0 0 0 1 0 0 -1 1 0 0 0 0 0 0c-3,3 -5,6 -7,9l16 1 0 12 -38 0 0 -13 14 0c0,0 0,0 0,0 -3,-5 -5,-9 -8,-13l0 0 0 -1 0 0 -1 0 0 0 0 -1c-6,-8 -13,-15 -20,-19l0 0 -1 0 0 0 -1 0 0 0 -1 -1 0 0c0,0 -1,0 -2,0 -2,-1 -4,-2 -6,-2l0 0 0 0 0 0 -1 -1 0 0 -1 0 0 0 -1 0 0 0 0 0 0 0 -1 0 0 0 -1 0 0 0 -1 0 0 0 -1 0zm0 0l0 0 0 0zm30 61l0 0 0 0zm-3 181l-13 0 -13 -17 0 -7c2,0 3,-1 4,-2 3,-2 4,-4 4,-7 0,-3 -1,-6 -3,-7 -2,-1 -3,-2 -5,-3l0 -2c3,0 5,0 7,1 2,1 5,2 6,4 2,1 3,4 3,6 0,3 -1,5 -3,8 -2,2 -5,3 -9,4l10 13c2,3 4,5 6,6 1,1 3,2 6,2l0 1zm-26 -17l0 -7c-2,0 -4,1 -6,1l-1 0 -1 0 0 -19c2,-1 4,-1 5,-1l3 0 0 -2 -4 0 -18 0 0 1 2 0c2,0 3,1 4,1 1,1 1,3 1,6l0 29c0,2 0,4 -1,5 0,1 -2,2 -4,2l-2 0 0 1 21 0 0 -1 -2 0c-2,0 -3,-1 -4,-2 -1,-1 -1,-2 -1,-5l0 -13 1 0 1 0 3 0 3 4zm160 76l19 0 0 3 -2 0c-1,0 -2,0 -3,1 0,0 -1,1 -1,1 0,1 -1,2 -1,4l0 31c0,1 1,3 1,3 0,0 1,1 1,1 1,1 2,1 3,1l2 0 0 3 -19 0 0 -3 1 0c2,0 3,0 3,-1 1,0 1,-1 1,-1 1,0 1,-2 1,-3l0 -32c0,-1 0,-2 -1,-3 0,-1 0,-1 -1,-1 0,-1 -1,-1 -3,-1l-1 0 0 -3zm2 -79l19 0 0 2 -2 0c-1,0 -2,1 -3,1 0,0 -1,1 -1,2 -1,0 -1,1 -1,3l0 31c0,2 0,3 1,3 0,1 1,1 1,2 1,0 2,0 3,0l2 0 0 3 -19 0 0 -3 1 0c2,0 3,0 3,-1 1,0 1,0 2,-1l0 -3 0 -31 0 -4c-1,0 -1,-1 -2,-1 0,-1 -1,-1 -3,-1l-1 0 0 -2zm-71 63l19 0 0 3 -2 0c-1,0 -2,0 -3,1 0,0 -1,0 -1,1 -1,1 -1,2 -1,4l0 31c0,1 0,2 1,3 0,0 1,1 1,1 1,1 2,1 3,1l2 0 0 2 -19 0 0 -2 1 0c1,0 2,0 3,-1 1,0 1,-1 2,-1l0 -3 0 -32 0 -4c-1,0 -1,0 -2,0 -1,-1 -2,-1 -3,-1l-1 0 0 -3zm28 -60c3,1 6,2 8,3 2,3 3,5 3,8 0,2 0,5 -2,7 -2,2 -4,4 -6,5 -3,1 -6,1 -11,1l0 -2c3,0 6,-1 8,-3 2,-2 3,-4 3,-7 0,-2 0,-4 -1,-6 -2,-1 -3,-3 -5,-4 -2,0 -4,0 -5,-1l0 -3c1,0 3,0 4,-1 2,0 3,-1 4,-3 1,-2 2,-3 2,-5 0,-3 -2,-5 -4,-7 -1,-1 -4,-2 -6,-3l0 -2c2,0 4,0 6,1 4,0 6,2 8,4 2,2 3,5 3,7 0,3 -1,5 -2,7 -2,1 -4,3 -7,4zm-8 24l0 -2 -2 0c-3,0 -6,0 -8,-1l0 -20 2 0 4 0 4 0 0 -3 -3 0 -4 0c-2,0 -2,0 -3,0l0 -18c1,-1 4,-1 6,-1 1,0 2,0 4,0l0 -2 -3 0 -21 0 0 1 1 0c2,0 4,0 5,1 0,1 1,3 1,6l0 31c0,2 -1,4 -1,5 -1,1 -2,2 -5,2l-1 0 0 1 23 0 1 0zm-192 53l2 0 1 1 30 0 0 -1 3 0 5 13 -3 2c-1,-4 -3,-7 -6,-9 -2,-1 -5,-2 -8,-2 -1,0 -2,1 -2,1 0,0 0,0 -1,0l0 2 0 33c0,2 0,2 1,3 0,1 0,1 0,1 1,1 1,1 2,1l3 0 0 3 -18 0 0 -3 3 0c1,0 2,-1 2,-1 0,-1 0,-2 0,-4l0 -33 0 -2 0 0c0,0 -1,-1 -2,-1 -3,0 -5,1 -6,2 -2,0 -3,1 -5,3 -1,1 -2,3 -3,6l-3 -2 5 -13zm109 30l-13 0 -13 -18 0 -6c2,-1 3,-1 4,-2 2,-2 4,-4 4,-7 0,-3 -1,-6 -3,-7 -2,-1 -3,-2 -5,-3l0 -2c3,0 5,0 7,1 2,1 4,2 6,4 2,1 2,4 2,6 0,3 0,5 -2,8 -2,1 -5,3 -9,4l10 13c2,3 4,5 6,6 1,1 3,2 6,2l0 1zm-26 -18l0 -6c-2,0 -4,1 -6,1l-1 0 -1 0 0 -19c2,-1 4,-1 5,-1l3 0 0 -2 -4 0 -18 0 0 1 2 0c2,0 3,1 4,1 1,1 1,3 1,6l0 29c0,2 0,4 -1,5 -1,1 -2,2 -4,2l-2 0 0 1 21 0 0 -1 -2 0c-2,0 -3,-1 -4,-2 -1,-1 -1,-2 -1,-5l0 -13 1 0 1 0 3 0 3 3zm-63 -62l-8 0 0 -2 7 0 -7 -19 0 -7 1 -3 1 0 15 38c1,3 2,5 3,6 1,0 2,1 4,1l0 2 -17 0 0 -2c2,0 3,0 4,-1 0,0 1,-1 1,-1 0,-2 -1,-3 -1,-5l-3 -7zm-8 0l0 -2 -7 0 7 -19 0 -7 -13 34c-2,4 -3,6 -4,7 0,0 -2,1 -3,1l0 2 13 0 0 -2c-2,0 -4,0 -4,-1 -1,0 -1,-1 -1,-2 0,-1 0,-2 1,-3l3 -8 8 0zm100 160l14 1c-9,-18 -20,-31 -34,-36 -12,-5 -25,-4 -41,4l0 0 -1 1 0 0c-5,2 -10,5 -15,9 -3,2 -6,4 -10,6l0 0 0 0c-10,5 -20,8 -30,7 -11,-1 -23,-7 -35,-18l0 -1 0 0 -1 0 0 0 -1 -1 0 0 0 0 0 -1 -1 0 0 0 0 0 0 -1 0 -2c-1,-32 -1,-63 -2,-95l-1 -89 -5 0 0 190c11,14 23,23 36,26 14,4 28,3 42,-5 6,-2 10,-6 15,-9 9,-7 18,-14 31,-14 8,0 15,2 20,5 6,3 11,8 16,14l5 6 -5 0c-6,1 -9,4 -10,8 -1,1 -1,2 -1,3 0,1 0,3 1,4 2,4 5,8 10,8l22 0 0 3 0 -3 24 0c3,-1 6,-3 7,-6 1,-2 2,-3 2,-5 0,-2 -1,-3 -2,-5 -1,-3 -4,-6 -7,-7l-3 -1 2 -4c3,-7 7,-13 13,-16 7,-4 15,-5 26,-5 14,2 22,8 29,15 8,6 15,12 28,14 9,2 19,1 30,-4 11,-4 22,-11 34,-20l0 -192 -9 0 0 184 0 2 0 0 0 0 0 1c-4,3 -8,6 -12,9l0 0 -1 1 0 0c-9,6 -18,10 -27,11l0 0c-1,0 -2,0 -2,0 -14,1 -27,-4 -39,-16 -14,-10 -28,-14 -39,-13l0 0 0 0 -1 0 0 0 0 0 -2 0 0 0c-4,0 -8,1 -12,3 -4,2 -9,5 -13,8l-1 0 0 1 0 0 -1 0 0 0 0 1 -1 0 0 0 0 0 -1 1 0 0 -1 1 0 0 -1 1 0 0 0 0 0 0 -1 1 0 0c-5,5 -9,11 -14,17l0 0 0 1 0 0 -1 1 0 0 0 1 -1 1 15 0 0 13 -37 -1 0 -13zm19 -229l0 200c2,-2 4,-4 6,-6l1 0 0 -1 0 0 1 -1 0 0 1 0 0 0c5,-5 10,-9 15,-13l0 0 1 0 0 0 0 -1 1 0 0 0 0 0 1 0 0 -1 0 0 0 0 1 0 0 0c5,-3 10,-6 15,-7 1,-1 2,-1 3,-1l0 0 1 -1 0 0 0 0 0 0c7,-1 14,-1 22,1l0 0 1 1 0 0 1 0 0 0 1 0 0 0 1 0 0 1 0 0 1 0 1 0 0 0 1 1 0 0 1 0 1 1 1 0 1 1 0 0 0 0 0 0 1 0 0 0c3,2 6,4 10,6 11,8 23,14 34,16 7,0 14,0 21,-3l0 0 1 -1 0 0 1 0 0 0c3,-2 7,-4 10,-7l0 -2 0 0 0 -1 0 0 0 -2 0 0 0 -1 0 0 0 -1 0 -1 0 -1 0 0 0 -1 0 -1 0 -1 0 0 0 -1 0 -1 0 -1 0 0 0 -1 0 -1 0 -1 0 0 0 -1 0 -1 0 -1 0 0 0 -1 0 -1 0 -1 0 0 0 -2 0 -1 0 0 0 -1 0 -2 0 -1 0 -1 0 -1 0 -2 0 0 0 -3 0 0 0 -5 0 0 0 -4 0 0c0,-14 0,-29 0,-43l0 -1 0 -3 0 -2 0 -3c0,-32 0,-65 0,-97 -9,4 -18,8 -27,9 -10,1 -19,-1 -28,-9 -19,-15 -38,-20 -55,-18 -17,2 -33,13 -48,29zm0 206l0 21c5,-9 11,-16 17,-23l1 0 0 0 0 0 0 -1 1 0 0 -1 0 0 1 0 0 -1 0 0 1 0 0 0 0 -1 2 -1 0 0 0 -1c1,0 2,-1 3,-2l0 0c4,-3 8,-5 12,-7l0 0 0 0 0 0 1 0 1 -1 0 0 0 0c15,-5 32,-3 51,9l0 0 1 1 1 1 0 0 1 0c12,11 24,16 38,16 1,0 2,-1 3,-1l0 0 0 0 0 0c12,-2 25,-8 37,-20l0 -184 0 -4 0 -2 -12 -9 0 6 0 0 0 1 0 0 0 2 0 0 0 1 0 0 0 2 0 0 0 1 0 0 0 3 0 1 0 0 0 1 0 1 0 2 0 1 0 1 0 0 0 3 0 0 0 7 0 1 0 2 0 1 0 1 0 1 0 0 0 3 0 0 0 1 0 1 0 1 0 0 0 1 0 1 0 1 0 0 0 2 0 0 0 1 0 0 0 2 0 0 0 1 0 0 0 1 0 1 0 1 0 1 0 0 0 1 0 1 0 1 0 0 0 1 0 1 0 1 0 0 0 6 0 0 0 2 0 0 0 18 0 1 0 0 0 2 0 1 0 3 0 1 0 1 0 0 0 1 0 1c0,26 0,51 0,77l0 2 0 3 0 1 0 1 0 1 0 0 0 2 0 0 0 1 0 0 0 2 0 0 0 1 0 3 0 0 -1 0 0 0c-2,2 -4,4 -6,5l0 0 -1 1 0 0 0 0 -1 0 0 1 -1 0 0 0c-8,5 -17,6 -25,5 -4,-1 -8,-2 -11,-3l0 0 -1 0 0 0c-8,-3 -15,-7 -23,-13 -8,-5 -15,-9 -21,-10l0 0 -2 -1 0 0 -1 0 0 0 0 0 0 0 -2 -1 0 0 -1 0 0 0 0 0 0 0 -1 0 0 0 -1 0 0 0 0 0 0 0 -1 0 -1 0 0 0 -1 0 0 0 0 0 0 0 -1 0 0 0 -1 0 0 0 -1 0 -1 0 0 0 -1 0 -1 0 -1 0 0 0 0 0 -1 0 -1 0 0 0 -1 1 0 0 -1 0 0 0 -1 0 -1 0 0 0 -1 0 -1 1 0 0 -1 0 -1 0 0 1 -1 0 -1 0 0 0 0 0 -1 1 -1 0 0 0 0 0 0 0 -1 1 0 0 0 0 -1 0 0 0 -1 1 0 0 0 0 0 0 -1 0 0 0 -1 1 0 0c-10,5 -20,14 -32,25zm-2 23l0 -23c-13,-16 -27,-26 -43,-30 -14,-3 -30,0 -47,10l0 0 -1 0 0 0 0 1 -1 0 0 0 -1 1 -1 0 0 0c-9,6 -17,9 -24,11l0 0 0 0 -1 0 0 0 -1 1 0 0 0 0 0 0c-4,0 -7,1 -10,1l-1 0 0 0 -1 0 0 0 0 -1 -1 0 0 0 -1 0 0 0c-3,0 -6,-1 -9,-2l0 0 -1 0 0 0 0 0 -1 0 0 -1 0 0 -1 0 0 0 0 0 -1 0 0 -1 0 0 -1 0 0 0 0 0 0 0 -1 0 0 0c-3,-2 -5,-4 -8,-6l0 0 -1 0 0 0 0 0 0 0 0 -1 -1 0 0 -1 0 -2 0 -191 -14 10c1,31 1,63 1,95l1 34 0 60c13,13 25,19 37,21l2 0 0 0 0 0 1 0 0 0c13,0 25,-5 37,-14 10,-7 19,-11 28,-14l2 0 0 0 1 -1 0 0 1 0 0 0 0 0 0 0 1 0 0 0 1 0 0 0 1 -1 0 0 1 0 0 0 2 0 0 0c7,-1 13,0 19,2 6,3 11,6 16,11l0 0 0 0 1 1 0 0 1 1 0 0c6,6 12,14 17,24l0 0 0 1 0 0 1 1 0 0c0,1 1,2 1,3zm0 -30l0 -199c-15,-14 -31,-24 -46,-27 -15,-4 -30,-1 -44,11l0 0c-12,8 -23,12 -34,13 -12,1 -22,-1 -34,-6l0 1 0 0 0 191c4,3 8,5 11,7l0 0 1 0 0 0 0 1 0 0 1 0 0 0 1 0 0 0 0 0 0 1 1 0 0 0 1 0 0 0 0 0 1 0 0 1 1 0 0 0 1 0 0 0c2,1 5,1 8,1 3,0 6,0 10,0l0 0 0 -1c8,-1 17,-5 28,-12 3,-2 7,-4 11,-6l0 0 0 0 1 0 1 -1 0 0c3,-1 7,-2 10,-3l0 0 1 -1 0 0 0 0 1 0 1 0 1 0 0 0 1 0 0 0c7,-2 15,-2 22,0 16,3 30,14 43,29zm-20 53l0 0 0 0zm-436 -133l-8 0 0 -2 7 0 -7 -19 0 0 0 -8 1 -3 1 0 15 39c1,3 2,5 3,5 1,1 2,2 4,2l0 1 -16 0 0 -1c1,0 2,0 3,-1 0,-1 1,-1 1,-2 0,-1 -1,-3 -2,-4l-2 -7zm-8 0l0 -2 -7 0 7 -19 0 -8 -14 35c-1,3 -2,6 -3,6 -1,1 -2,2 -3,2l0 1 13 0 0 -1c-2,0 -4,-1 -4,-1 -1,-1 -1,-1 -1,-2 0,-1 0,-2 1,-4l3 -7 8 0zm86 -6l0 16 -1 0c0,-3 -1,-5 -2,-7 -1,-2 -3,-3 -5,-4 -2,-1 -4,-2 -6,-2 -3,0 -5,1 -6,2 -2,2 -3,3 -3,5 0,2 1,3 2,4 1,2 5,4 10,7 5,2 8,4 9,5 2,2 4,3 4,5 1,1 2,3 2,5 0,3 -2,6 -5,9 -2,2 -6,3 -11,3l-4 0c0,0 -2,-1 -4,-1 -2,-1 -4,-1 -5,-1 0,0 -1,0 -1,0 0,0 0,1 0,2l-2 0 0 -15 2 0c0,3 1,5 2,7 1,2 3,3 5,4 2,1 4,2 7,2 3,0 5,-1 7,-2 2,-2 3,-4 3,-6 0,-1 -1,-2 -2,-3 0,-1 -1,-2 -3,-3 0,-1 -3,-2 -7,-4 -4,-3 -7,-5 -9,-6 -2,-1 -3,-3 -4,-4 -1,-2 -1,-4 -1,-5 0,-4 1,-6 4,-9 2,-2 6,-4 10,-4 2,0 5,1 8,2 1,1 2,1 3,1 0,0 1,0 1,0 0,-1 1,-1 1,-3l1 0zm-72 -76c3,1 6,2 8,4 2,2 3,5 3,8 0,2 -1,4 -3,6 -1,3 -3,4 -6,5 -2,1 -6,2 -11,2l0 -3c4,0 6,-1 9,-3 2,-1 3,-4 3,-7 0,-2 -1,-3 -2,-5 -1,-2 -2,-3 -5,-4 -1,-1 -3,-1 -5,-2l0 -2c2,0 4,-1 5,-1 2,-1 3,-2 4,-4 1,-1 1,-3 1,-5 0,-3 -1,-5 -3,-7 -2,-1 -4,-2 -7,-3l0 -3c3,1 5,1 7,1 3,1 6,3 8,5 2,2 2,4 2,8 0,2 0,4 -2,6 -1,2 -3,3 -6,4zm-9 25l0 -3 -1 0c-3,0 -6,0 -9,-1l0 -20 3 0 4 0 3 0 0 -2 -3 0 -3 0c-2,0 -3,-1 -4,-1l0 -18c2,-1 4,-1 7,-1 1,0 2,0 3,0l0 -3 -3 0 -21 0 0 2 2 0c2,0 4,0 5,2 0,0 1,2 1,5l0 31c0,3 -1,5 -1,6 -1,1 -3,1 -5,1l-2 0 0 2 23 0 1 0zm43 -21l36 0 5 13 -3 1c-1,-2 -2,-4 -2,-5 -1,-1 -2,-2 -3,-3 -2,-1 -3,-1 -4,-1 -1,-1 -3,-1 -7,-1l-10 0 0 17 8 0c2,0 3,0 5,-1 1,-1 1,-1 1,-2 1,-1 1,-3 1,-4l0 -1 3 0 0 21 -3 0 0 -2 0 -4c-1,0 -1,-1 -1,-2 -1,-1 -2,-1 -3,-1 0,-1 -2,-1 -3,-1l-8 0 0 16 0 2c0,1 0,1 1,1 0,0 1,1 2,1l7 0c4,0 7,-1 9,-2 2,-1 4,-2 5,-4 2,-1 3,-4 4,-6l3 1 -5 15 -38 0 0 -4 1 0 3 0c0,0 1,-1 1,-2 0,0 1,-1 1,-2l0 -33c0,-1 -1,-2 -1,-2 0,-1 -1,-1 -2,-2l-3 0 0 -3zm-188 118l-13 0 -14 -18 0 -7c2,-1 4,-2 5,-3 2,-2 4,-4 4,-7 0,-3 -1,-6 -3,-7 -2,-2 -3,-3 -6,-3l0 -3c4,0 6,1 8,1 2,1 4,2 6,4 2,2 2,5 2,7 0,3 -1,6 -2,8 -2,2 -5,4 -10,5l10 14c3,3 5,5 6,6 2,1 4,1 7,2l0 1zm-27 -18l0 -7c-1,0 -3,0 -5,0l-1 0 -1 0 0 -20c2,0 4,-1 5,-1 1,0 2,1 2,1l0 -3c-1,0 -2,0 -4,0l-17 0 0 1 2 0c1,0 3,0 4,2 1,0 1,3 1,5l0 31c0,3 0,5 -1,6 -1,1 -2,2 -4,2l-2 0 0 1 20 0 0 -1 -1 0c-2,0 -3,-1 -4,-2 -1,-1 -1,-2 -1,-6l0 -14 1 0 1 0 3 0 2 5zm54 -136l19 0 0 3 -2 0c-1,0 -2,0 -2,0 -1,0 -2,1 -2,2 0,1 0,2 0,4l0 32c0,1 0,3 0,3 0,1 1,2 2,2 0,0 1,0 2,0l2 0 0 3 -19 0 0 -3 2 0c1,0 2,0 3,0 0,0 1,-1 1,-2 0,0 0,-1 0,-3l0 -33c0,-2 0,-3 0,-4 0,0 -1,-1 -1,-1 -1,0 -2,0 -3,0l-2 0 0 -3zm-8 81l2 0 1 2 30 0 1 -2 2 0 5 14 -3 1c-1,-4 -3,-6 -5,-8 -3,-1 -5,-2 -8,-2 -2,0 -3,0 -3,0 0,0 0,0 -1,1l0 2 0 32c0,2 0,3 1,4 0,0 0,1 0,1 1,0 1,0 2,0 1,1 1,1 4,1l0 3 -19 0 0 -3c2,0 3,0 3,-1 1,0 2,0 2,0 1,-1 1,-2 1,-4l0 -34 0 -1c0,-1 -1,-1 -1,-1 0,0 -1,0 -2,0 -2,0 -5,0 -6,1 -2,1 -3,1 -5,3 -1,2 -2,3 -3,6l-3 -1 5 -14zm-67 -51l20 0 0 3 -2 0 -3 0c-1,0 -1,1 -2,1l0 3 0 34 0 3c0,1 1,1 1,1l3 0 3 0c3,0 6,0 8,-1 2,-1 4,-2 6,-4 1,-1 3,-4 4,-7l3 1 -5 15 -36 0 0 -3 2 0c1,0 2,0 3,0 0,-1 1,-1 1,-2 0,0 0,-1 0,-3l0 -33c0,-2 0,-3 0,-4 0,0 0,-1 -1,-1l-3 0 -2 0 0 -3zm118 195l14 0c-3,-5 -6,-10 -9,-15l0 0 0 0 0 0 -1 -1 0 0 0 -1 0 0 -1 -1 0 0 -1 0 0 0c0,-1 -1,-2 -1,-2l0 0 0 0 0 0c-1,-1 -2,-3 -3,-3l0 0c-5,-5 -10,-9 -15,-11l0 0 -1 -1 0 0 0 0 -1 0 -1 -1 -1 0 0 0 0 0 -1 0 0 0 -1 -1 0 0 0 0 0 0 -1 0 0 0c-1,0 -2,0 -2,0l0 0 -1 -1 0 0c-3,0 -5,0 -8,0l0 0 -1 0 0 0 -1 0 0 0c-4,0 -9,1 -15,3l0 0 0 0 -1 0 0 0c-1,1 -2,1 -3,2l0 0 -1 0 0 0 -1 1 0 0 -1 0 0 0 -1 0 0 0c-5,3 -11,6 -17,10 -7,6 -14,9 -22,12l0 0 0 0 0 0 -1 0 0 0 0 0 -1 0 0 0 0 0 -1 0 0 0 0 0 0 0 -1 1 0 0c-4,0 -9,1 -13,1 -3,-1 -6,-1 -9,-2l-1 0 0 0 -1 -1 0 0 -1 0 0 0c-4,-2 -9,-4 -13,-7l0 0 -1 0 0 0 0 -1 -1 0 0 0 0 0 -1 -1 0 0 0 0 0 0 -2 -1 0 0c-3,-3 -6,-5 -9,-8l0 -1 0 -2c-1,-33 -1,-65 -2,-98 0,-28 0,-57 -1,-86l0 -1 -6 0 0 190c12,14 24,23 37,27 13,4 28,2 42,-5 6,-3 11,-6 15,-10 9,-7 18,-13 31,-13 8,-1 15,1 21,5 5,3 11,8 15,14l5 6 -5 0c-5,0 -9,3 -10,7 -1,1 -1,3 -1,4 0,1 1,2 1,4 2,4 5,7 10,7l22 0 0 4 0 -4 24 0c3,-1 6,-3 7,-5 2,-2 2,-4 2,-5 0,-2 -1,-4 -2,-6 -1,-3 -4,-5 -7,-6l-3 -1 2 -5c3,-7 7,-12 13,-16 7,-3 15,-5 26,-4 14,1 22,8 30,15 7,6 14,12 26,14 10,2 21,0 31,-4 11,-5 22,-11 34,-21l0 -192 -9 0 0 184 0 3 0 0 0 1 -1 0 0 0 -1 1 0 0c-14,12 -27,19 -40,20 -8,0 -16,-2 -24,-5l0 0 -1 -1 0 0 0 0 0 0 -1 -1 0 0 -1 0 0 0 0 0 -1 -1 0 0 0 0 0 0c-4,-2 -7,-5 -11,-8 -15,-11 -29,-15 -41,-13l0 0 -1 0 0 0 0 0 0 0 -1 0 -1 0 -1 0 0 0 0 0c-3,1 -6,2 -9,3 -3,1 -7,3 -11,6l0 0 0 0 0 0 -1 1c-8,6 -17,16 -24,27l15 1 0 12 -37 0 0 -13zm19 -230l0 200c15,-14 28,-25 42,-30l0 0 1 0 0 0 0 0c12,-4 24,-3 38,5l0 0 1 0 0 0 1 1 0 0c3,1 5,3 8,5 10,7 20,12 30,14l0 0 0 1 0 0 1 0 1 0 0 0 0 0 0 0 1 0 0 0 0 0 0 0 1 0 1 0 0 0 0 0 1 0 0 0 0 0 0 0 1 0 0 0 0 1 0 0 1 0 0 0 0 0 0 0 1 0 0 0 0 0 0 0 1 0 0 0 1 0 0 0c5,-1 11,-2 16,-5l0 0 0 0 1 0 0 0 0 0 1 -1 0 0 0 0 1 0 0 0 0 -1 0 0c3,-1 5,-3 7,-5l0 -1 0 0 0 -1 0 0 0 -2 0 0 0 -4 0 0c0,-30 0,-60 0,-90 0,-30 0,-60 0,-91l0 0 0 -1 0 -1 0 -1 0 0 0 -1 0 -1 0 -2c-9,5 -18,9 -27,10 -10,1 -19,-1 -27,-9 -20,-15 -39,-21 -56,-18 -17,2 -33,12 -48,28zm0 207l0 21c8,-12 15,-22 24,-29l0 0 1 -1 0 0 0 0 0 0 1 -1 0 0 1 0c4,-3 8,-6 12,-8 6,-2 11,-3 17,-3l1 0 0 0 1 0 0 0 1 0 0 0 0 0 0 0 1 0 0 0 1 0 0 0 1 0 0 0 1 0 0 0 1 1 0 0c8,1 18,5 28,11l0 0 1 1 0 0 1 0 0 0c11,11 23,17 36,16l0 0 1 0 0 0 1 0c6,0 12,-2 18,-4l0 0 0 -1 2 0 0 0 0 -1 0 0 0 0 2 0 0 0 0 -1 0 0 1 0 0 0 1 0 0 0c5,-4 11,-8 17,-13l0 -185 0 -3 0 -3 -13 -8c0,30 0,62 0,94 0,15 0,30 0,46l0 0 0 1 0 0 0 2 0 0 0 1 0 1 0 2 0 1 0 1 0 0 0 1 0 1 0 1 0 0 0 2 0 0 0 1 0 1 0 1 0 0 0 1 0 1 0 1 0 0 0 1 0 1 0 1 0 0 0 1 0 1 0 1 0 1 0 0 0 1 0 1 0 1 0 0 0 1 0 1 0 1 0 0 0 2 0 0 0 1 0 1 0 1 0 0 0 1 0 1 0 1 0 0 0 1 0 1 0 1 0 0 0 2 0 0 0 1 0 0 0 2 0 0 0 1 0 0 0 2 0 2 0 1 -1 0 0 0c-6,5 -11,9 -17,10l0 0c-1,1 -2,1 -2,1l0 0 -1 0 0 0 -1 0 0 0c-1,0 -1,0 -2,0l0 0 -1 1 0 0c0,0 -1,0 -1,0l0 0 -1 0 0 0 0 0 0 0 -1 0 0 0 0 0 0 0 -1 0 0 0 -1 0 0 0 0 0 0 0 -1 0 0 0 0 0 0 0 -1 0 0 0 0 0 0 0 -1 0c0,0 -1,0 -2,0 -1,-1 -3,-1 -4,-1l0 0 -1 0 0 0 0 0 0 0 -1 -1 0 0 0 0 0 0c-8,-2 -16,-6 -24,-11l0 0 0 0 0 0 -1 0 0 0c-1,-1 -2,-2 -3,-3 -7,-5 -14,-8 -20,-10l0 0 -1 0 0 0 -1 -1 0 0 0 0 0 0c-10,-2 -18,-2 -26,1 -2,0 -3,1 -5,1l0 0 0 1 0 0 -1 0 0 0 -1 0 0 1 0 0 -1 0 0 0 -1 0 0 0c-11,6 -22,15 -34,27zm-2 22l0 -22c-6,-8 -13,-14 -19,-19l-1 0 0 -1c-1,0 -2,-1 -3,-1l0 -1 0 0 -1 0 0 0 0 0 -1 -1 0 0 -1 0 0 0 0 -1c-5,-2 -10,-4 -14,-5l0 0 -1 -1 0 0 -1 0 0 0 -1 0 0 0 0 0 -1 0 -1 -1 0 0 -1 0 0 0 0 0 0 0 -1 0 0 0 -1 0 0 0 0 0 -1 0 0 0 0 0 -1 0 0 0 -1 0 0 0 0 0 0 0 -1 0 0 0 -1 0 0 0 -1 0 0 0 0 0 0 0 -1 0 0 0 -1 0 0 0 -1 0 0 0 -1 0 0 0 0 0 0 0 -1 0 0 0 -1 0 0 0 -1 0 0 0 0 0 0 0 -1 0 0 0 -1 0 0 0 -1 0 0 0 0 0 0 0 -1 1 0 0 -1 0 0 0 -1 0 0 0 -1 0 0 0 0 0 0 0 -1 1 0 0 -1 0 0 0 -1 0 0 0 -1 0 0 0 0 0 0 0 -1 1 0 0 -1 0 0 0 -1 0c-6,2 -12,5 -18,9 -15,10 -27,14 -38,13l0 0 -1 0c-7,0 -13,-3 -19,-6l0 0 0 0 0 0 -1 0 0 0 -1 -1 0 0 0 0 0 0 0 0 0 0 -1 -1 0 0 0 0 0 0 -1 0 0 0 0 0 0 0 0 -1 0 0 -1 0 0 0 0 0 0 0 -1 0 0 -1 0 0 0 0 -1 0 0 0 0 -1 0 0 -1 0 0 0 0 0 0 0 -1 -1 0 0 0 -2 0 -191 -13 9 0 11 2 179 0 0c13,13 25,19 38,20l0 0 0 0 1 0 0 0 0 0 1 0 0 0 0 0 1 0 0 0 0 0 0 0 1 0 0 0 0 0 1 0 0 0 0 0 1 0 0 0 0 0 0 0 1 0 0 0c11,-1 21,-5 32,-13 3,-2 5,-3 8,-5l0 0 1 0 0 0 1 -1 0 0c14,-8 26,-11 36,-10l1 0 0 0c3,0 7,1 10,2 15,6 27,21 37,41zm0 -29l0 -199c-15,-14 -31,-24 -46,-28 -15,-3 -30,0 -44,11 -11,8 -23,13 -34,14 -12,1 -23,-1 -34,-7l0 1 0 192 0 0 1 1 0 0 0 0 0 0 1 0 0 0c7,6 15,9 25,10 2,0 4,0 7,0l0 0 0 0 0 0 1 -1 0 0 0 0 0 0 1 0 0 0c3,0 6,-1 10,-2l0 0 2 -1 0 0 0 0 0 0 1 0 0 0 1 -1 0 0 0 0 0 0 1 0 0 0 0 -1 0 0 1 0 0 0 1 0 0 0 0 0 0 0 1 -1 0 0 1 0 0 0 0 0 0 0 1 -1 0 0 0 0 1 0 0 0 1 -1 0 0 0 0 0 0 2 -1 0 0 2 -1 0 0 0 0 0 0 1 -1 0 0 1 0 0 0 1 -1 0 0 1 -1 2 -1 0 0c10,-6 19,-9 28,-10l1 0 0 0 0 0 0 0 1 -1 0 0 1 0 0 0 1 0 0 0 0 0 0 0 1 0 0 0 1 0 0 0 1 0 0 0 1 0 0 0 0 0 0 0 1 0 0 0 1 0 0 0 1 0 0 0 0 0 0 0 1 0 0 0 1 0 0 0 1 1 0 0 0 0 0 0 1 0 0 0 1 0 0 0 1 0 0 0 0 0 0 0 1 0 0 0 1 0 0 0 0 1 1 0 0 0 1 0 0 0 1 0 0 0 0 0 0 0 1 1 0 0 1 0 0 0 1 0 0 0c2,1 5,2 7,3l0 0 0 0 1 1 1 0 0 0 0 0 0 0 2 1 0 0 1 0 0 1 0 0 1 0 0 0 0 1c9,5 17,12 24,21zm1 -205l0 0 0 0zm-175 8l0 0 0 -1 0 1 0 0zm234 -261l-8 0 0 -3 7 0 -7 -19 0 1 0 -8 1 -3 1 0 15 38c1,3 2,5 3,6 1,1 2,1 4,1l0 2 -16 0 0 -2c1,0 2,0 3,0 0,-1 1,-1 1,-2 0,-1 -1,-3 -2,-5l-2 -6zm-8 0l0 -3 -7 0 7 -18 0 -8 -14 35c-1,3 -2,5 -3,6 -1,1 -2,1 -3,1l0 2 13 0 0 -2c-2,0 -4,0 -4,0 -1,-1 -1,-2 -1,-2 0,-1 0,-2 1,-4l3 -7 8 0zm86 -6l0 16 -1 0c0,-3 -1,-5 -2,-7 -1,-2 -3,-3 -5,-4 -2,-2 -4,-2 -6,-2 -2,0 -5,1 -6,2 -2,1 -3,3 -3,5 0,1 1,3 2,4 1,1 5,4 10,6 5,3 8,5 9,6 2,1 4,3 4,4 1,2 2,4 2,5 0,4 -2,7 -5,9 -2,3 -6,4 -11,4 -1,0 -2,0 -4,0 0,0 -2,-1 -4,-1 -2,-1 -4,-2 -5,-2 0,0 -1,1 -1,1 0,0 0,1 0,2l-2 0 0 -16 2 0c0,4 1,6 2,8 1,1 3,3 5,4 2,1 4,1 7,1 3,0 5,0 7,-2 2,-1 3,-3 3,-5 0,-1 -1,-2 -2,-4 0,0 -1,-2 -3,-3 0,0 -3,-2 -7,-4 -4,-2 -7,-4 -9,-5 -2,-2 -3,-3 -4,-5 -1,-1 -1,-3 -1,-5 0,-3 1,-6 4,-8 2,-3 6,-4 10,-4 2,0 5,1 8,2 1,0 2,1 3,1 0,0 1,0 1,-1 0,0 1,-1 1,-2l1 0zm-72 -76c3,0 6,1 8,3 2,2 3,5 3,8 0,3 -1,5 -3,7 -1,2 -3,4 -6,5 -2,1 -6,1 -11,1l0 -2c4,-1 6,-2 9,-3 2,-2 3,-4 3,-7 0,-2 -1,-4 -2,-6 -1,-1 -2,-3 -5,-4 -1,-1 -3,-1 -5,-1l0 -3c2,0 4,0 5,-1 2,0 3,-2 4,-3 1,-2 1,-3 1,-5 0,-3 -1,-6 -3,-7 -2,-2 -4,-3 -7,-3l0 -3c3,0 5,1 7,1 3,1 6,2 8,5 2,2 2,4 2,7 0,3 0,5 -2,7 -1,1 -3,3 -6,4zm-9 24l0 -2 -1 0c-3,0 -6,-1 -9,-1l0 -20 3 0c1,-1 2,-1 4,-1 1,0 2,1 3,1l0 -3 -3 0 -3 0c-2,0 -3,0 -4,0l0 -19c2,0 4,-1 7,-1 1,0 2,0 3,1l0 -3 -3 0 -21 0 0 1 2 0c2,0 4,1 5,2 0,1 1,3 1,6l0 31c0,3 -1,4 -1,5 -1,1 -3,2 -5,2l-2 0 0 2 23 0 1 -1zm43 -20l36 0 5 12 -3 1c-1,-2 -2,-3 -2,-4 -1,-2 -2,-2 -3,-3 -2,-1 -3,-2 -4,-2l-6 0 -11 0 0 17 8 0c2,0 3,0 5,-1 1,-1 1,-2 1,-3 1,-1 1,-2 1,-4l0 -1 3 0 0 21 -3 0 0 -2 0 -3c-1,-1 -1,-2 -1,-2 -1,-1 -2,-1 -3,-1 0,-1 -1,-1 -3,-1l-8 0 0 16 0 2c0,1 0,1 1,1l2 0 7 0c4,0 7,0 9,-1 2,-1 4,-2 5,-4 2,-2 3,-4 4,-7l3 1 -5 15 -38 0 0 -3 1 0c2,0 2,0 3,0 0,0 1,-1 1,-2 0,0 1,-1 1,-2l0 -33c0,-1 -1,-2 -1,-3 0,0 -1,-1 -2,-1l-3 0 0 -3zm-188 118l-13 0 -14 -19 0 -7c2,0 4,-1 5,-2 2,-2 4,-5 4,-7 0,-4 -1,-6 -3,-8 -2,-2 -3,-2 -6,-2l0 -4c4,1 6,1 8,2 2,0 4,2 6,4 2,2 2,4 2,7 0,3 -1,5 -2,8 -2,2 -5,3 -10,4l10 14c3,3 5,5 6,6 2,2 4,2 7,2l0 2zm-27 -19l0 -7c-1,0 -3,1 -5,1l-1 0 -1 0 0 -20c2,0 4,-1 5,-1 1,0 2,0 2,1l0 -4 -4 0 -17 0 0 2 2 0c1,0 3,0 4,2 1,0 1,2 1,5l0 31c0,3 0,5 -1,5 -1,2 -2,2 -4,2l-2 0 0 2 20 0 0 -2 -1 0c-2,0 -3,0 -4,-1 -1,-1 -1,-3 -1,-6l0 -14 1 0 1 0 3 0 2 4zm54 -136l19 0 0 3 -2 0c-1,0 -2,0 -2,1 -1,0 -2,1 -2,2 0,0 0,1 0,4l0 31c0,2 0,3 0,4 0,1 1,1 2,1 0,1 1,1 2,1l2 0 0 3 -19 0 0 -3 2 0c1,0 2,0 3,-1 0,0 1,0 1,-1 0,-1 0,-2 0,-4l0 -32c0,-2 0,-3 0,-4 0,0 -1,-1 -1,-1 -1,-1 -2,-1 -3,-1l-2 0 0 -3zm-8 82l2 0 1 1 30 0 1 -1 2 0 5 14 -3 0c-1,-3 -3,-6 -5,-7 -3,-2 -5,-3 -8,-3l-3 0c0,1 0,1 -1,1l0 3 0 32c0,2 0,3 1,3 0,1 0,1 0,2 1,0 1,0 2,0 1,0 1,1 4,1l0 2 -19 0 0 -2c2,0 3,-1 3,-1 1,0 2,0 2,-1 1,-1 1,-2 1,-3l0 -34 0 -2c0,0 -1,0 -1,0 0,-1 -1,-1 -2,-1 -2,0 -5,1 -6,1 -2,1 -3,2 -5,4 -1,1 -2,3 -3,5l-3 0 5 -14zm-67 -52l20 0 0 3 -2 0c-2,0 -3,1 -3,1 -1,0 -1,0 -2,1l0 3 0 34 0 3c0,0 1,1 1,1 1,0 2,0 3,0l3 0c3,0 6,0 8,-1 2,-1 4,-3 6,-4 1,-2 3,-4 4,-8l3 1 -5 16 -36 0 0 -3 2 0c1,0 2,0 3,0 0,-1 1,-1 1,-2 0,0 0,-2 0,-3l0 -34c0,-1 0,-3 0,-3 0,-1 0,-1 -1,-1 -1,0 -2,-1 -3,-1l-2 0 0 -3zm118 195l14 1c-2,-3 -3,-7 -5,-9l0 0 -1 -1 0 0 0 -1 0 0 -1 -1 0 0c-5,-9 -12,-16 -19,-20l0 0 -2 -1 0 0 0 0 0 0 -1 -1 -1 0 0 0 0 -1 0 0 -1 0 -1 0 0 0 0 0 -1 -1 -1 0 -1 0 0 -1 0 0 -1 0 0 0c-14,-4 -31,-1 -51,12l0 0 -1 1 0 0 -1 1 0 0 -2 1 0 0 0 0c-11,8 -22,12 -33,13l0 0 -1 0 0 0 0 0 0 0c-1,0 -2,0 -2,0l-1 0 0 0 0 0 -1 0 0 0 0 0 -1 0 0 0c-13,-1 -26,-7 -39,-21l0 -1 0 -2 0 -2c-1,-61 -2,-121 -3,-182l0 0 -5 0 0 190c11,14 23,23 36,27 14,3 28,2 42,-5 6,-3 11,-7 15,-10 9,-7 18,-13 31,-14 8,0 15,2 21,5 5,3 11,9 15,14l5 6 -5 1c-5,0 -9,3 -10,7 -1,1 -1,2 -1,4 0,1 1,2 1,3 2,5 5,8 10,8l0 0 22 0 0 6 0 -6 24 0c3,-1 6,-3 8,-6 1,-2 1,-3 1,-5 0,-1 -1,-3 -2,-5 -1,-3 -4,-6 -7,-6l-3 -1 2 -5c3,-7 7,-13 13,-16 7,-4 15,-5 26,-4 14,1 22,8 30,14 7,6 14,12 26,14 10,2 21,1 31,-4 11,-4 22,-11 34,-20l0 -192 -9 0 0 184 0 3 0 0 0 0c-13,12 -25,18 -36,20l0 0 -1 1 0 0 -1 0 0 0 0 0 0 0 -1 0 0 0 -1 0 0 0 0 0 0 0 -1 0 0 0 0 0 -1 0 0 0 0 0 -1 0 0 0 0 0 0 0 -1 0 0 0c-13,1 -25,-5 -37,-16 -5,-3 -9,-6 -14,-8l0 0 -1 0 0 0 -1 0 0 0 -1 -1 0 0 0 0 0 0 -1 0 -1 -1 0 0 -1 0 0 0 -1 0 -1 -1 -1 0 -1 0 0 0 -1 -1 0 0 -1 0 -1 0 0 0 -1 0 0 0 -1 0 0 0 0 0 0 0 -1 -1 0 0 -1 0 0 0 -1 0 0 0c-1,0 -2,0 -3,0l0 0c-5,0 -10,1 -15,2l0 0 -1 1 0 0 -1 0 0 0 -1 0 0 0 -1 0 0 1 0 0 -1 0 0 0 -1 0 0 0 0 1 0 0 -1 0c-5,2 -9,5 -13,9l-1 0 0 0 0 1 -1 0 0 1 -1 0 0 0 0 1 0 0 -1 0 0 0c-6,6 -11,13 -16,21l15 0 0 13 -37 -1 0 -13zm19 -229l0 200 1 -1 1 0 0 0 0 -1 0 0 1 -1 0 0 1 0 0 0 0 -1 0 0 1 -1 0 0 1 0 0 0 1 -1 0 0 0 -1 0 0 1 0 0 0 1 -1 0 0 0 -1 0 0c11,-9 21,-17 32,-21l0 0 0 0 0 0 1 0 1 0 0 0 0 0 1 -1 0 0c14,-4 29,-1 47,11 3,3 6,5 10,7l0 0 1 0 0 0 0 1 0 0 1 0 0 0c8,4 15,7 22,8 9,1 19,-1 27,-7l0 0 1 0 0 0 1 0 0 -1 0 0c1,-1 3,-2 4,-3l0 -1 0 0 0 -2 0 0 0 -1 0 0 0 -5 0 0c0,-29 0,-59 0,-90 0,-30 0,-60 1,-90l0 -1 0 -1 0 -1 0 0 0 -1 0 -1 0 -1 0 -1c-10,4 -19,8 -28,9 -9,1 -19,0 -27,-8 -20,-15 -39,-21 -56,-19 -17,3 -33,12 -48,29zm0 206l0 21c10,-16 22,-29 34,-36l0 0 1 0 1 -1 1 0 0 0 0 0 1 0 0 0 1 -1 0 0 0 0 1 0 0 0c15,-6 33,-4 54,10l0 0 0 0c6,6 12,10 18,12l0 0 0 0 0 0 1 1 0 0c6,2 12,3 19,3 13,-1 26,-8 41,-20l0 -185 0 -4 0 -2 -13 -9c0,31 0,63 0,95 0,18 0,35 0,53l0 0 0 2 0 0 0 1 0 0 0 2 0 0 0 1 0 1 0 1 0 0 0 1 0 1 0 1 0 0 0 1 0 1 0 1 0 0 0 1 0 1 0 1 0 1 0 1 0 0 0 1 0 1 0 1 0 0 0 1 0 1 0 1 0 1 0 0 0 1 0 1 0 1 0 0 0 1 0 1 0 1 0 0 0 2 0 0 0 1 0 0 0 2 0 0 0 1 0 1 0 1 0 0 0 2 0 0 0 1 0 0 0 2 0 2 -1 1c-11,10 -22,13 -34,11 -1,0 -3,0 -4,-1l0 0 -1 0 0 0 0 0 0 0 -1 0 0 0 0 0 0 0c-10,-3 -19,-8 -28,-14 -6,-4 -12,-7 -17,-9l0 0 -1 -1 -1 0 0 0 0 0 0 0c-11,-4 -20,-4 -29,-1 -14,5 -27,16 -43,30zm-2 23l0 -23 0 -1 0 0 -1 0 0 0c-13,-15 -27,-25 -42,-28 -13,-3 -28,-1 -43,7l0 0 -1 1c-2,1 -4,2 -6,3 -10,7 -19,10 -28,12l0 0 0 0 0 0 -1 0 0 0 0 0 -1 0 0 0 0 0 0 0 -1 0 0 0 0 0 0 0 -1 1 0 0 0 0 0 0 -1 0 0 0 0 0 0 0 -1 0 0 0 0 0 -1 0 0 0 0 0 0 0 -1 0 0 0 0 0 -1 0 0 0 -1 0 0 0 0 0 0 0c-11,-1 -20,-5 -28,-12l-1 0 0 -3 0 -191 -13 10 0 12 2 176 0 1 0 1c11,10 21,16 31,19l0 0 1 0 0 0 0 0 0 0c2,0 4,1 6,1 8,0 16,-1 24,-5l0 0 0 0 1 0 0 0 0 0 1 -1 0 0 0 0 0 0 1 0 0 0 1 0 0 0 0 -1 0 0 1 0 0 0 0 0 0 0c4,-2 7,-4 10,-7l0 0 0 0 0 0c13,-9 25,-14 35,-16l0 0 1 0 0 0 1 0 0 0 1 0 0 0c7,-1 13,0 19,3 15,5 27,20 37,41zm0 -29l0 -200c-15,-14 -31,-24 -46,-27 -15,-4 -30,-1 -44,11 -11,8 -23,13 -34,14 -12,1 -23,-2 -34,-7l0 0 0 193 1 0 0 0 0 0 0 1 0 0 1 0 0 0c7,5 15,9 25,9 10,1 22,-2 36,-11l0 0 1 -1 0 0 1 0 0 -1 1 0 0 0c12,-8 24,-11 34,-12l0 0 1 0 0 0 0 0c5,0 10,0 15,1 4,1 9,3 13,5l0 0 1 1 0 0 0 0 0 0c4,2 8,4 11,7l0 0 1 1 0 0 1 0 0 0 1 1 0 0 0 0 1 1 0 0 0 0 1 1 0 0 0 0 1 0 0 1 0 0 1 0 0 1 0 0 1 0 0 0 1 2 0 0 1 0 1 1 0 1 0 0 1 0 0 1 0 0 1 0 0 1 0 0 1 0 0 1 0 0 1 0 0 1 0 0 1 1 0 0 0 0 1 1 0 0 0 0 0 1zm-20 55l0 -3 0 3zm79 -498l-8 0 0 -3 7 0 -7 -19 0 1 0 -8 1 -3 1 0 15 38c1,3 2,5 3,6 1,1 2,2 4,2l0 1 -16 0 0 -1c1,0 3,-1 3,-1 0,-1 1,-1 1,-2 0,-1 -1,-3 -1,-5l-3 -6zm-8 0l0 -3 -7 0 7 -18 0 -8 -13 35c-2,3 -3,5 -4,6 -1,1 -2,2 -3,2l0 1 13 0 0 -1c-2,0 -3,-1 -4,-1 -1,-1 -1,-2 -1,-2 0,-1 0,-2 1,-4l3 -7 8 0zm86 -6l0 16 -1 0c0,-3 -1,-5 -2,-7 -1,-2 -3,-3 -5,-4 -2,-1 -4,-2 -6,-2 -2,0 -5,1 -6,2 -2,1 -3,3 -3,5 0,1 1,3 2,4 1,1 5,4 11,7 4,2 7,4 9,5 1,1 3,3 4,4 1,2 1,4 1,5 0,4 -2,7 -5,9 -2,3 -6,4 -10,4l-4 0c-1,0 -3,-1 -5,-1 -2,-1 -4,-2 -4,-2 -1,0 -1,1 -2,1 0,0 0,1 0,2l-2 0 0 -16 2 0c0,4 1,6 2,8 1,1 3,3 5,4 2,1 4,1 7,1 3,0 5,0 7,-2 2,-1 3,-3 3,-5 0,-1 -1,-2 -2,-3 0,-1 -1,-3 -2,-4 -1,0 -4,-2 -8,-4 -4,-2 -7,-4 -9,-5 -1,-1 -3,-3 -4,-4 -1,-2 -1,-4 -1,-6 0,-3 1,-6 4,-8 2,-2 6,-4 10,-4 3,0 5,1 8,2 1,1 2,1 3,1 1,0 1,0 2,-1 0,0 0,0 0,-2l1 0zm-72 -76c4,1 6,2 8,3 2,3 3,5 3,9 0,2 -1,4 -2,6 -2,3 -4,4 -6,5 -3,1 -7,2 -12,2l0 -3c4,-1 6,-1 9,-3 2,-2 3,-4 3,-7 0,-2 -1,-4 -2,-5 -1,-2 -2,-4 -5,-5 -1,0 -3,0 -5,-1l0 -3c2,0 4,0 5,-1 2,-1 3,-2 4,-3 1,-2 1,-3 1,-5 0,-3 -1,-6 -3,-7 -2,-2 -4,-3 -7,-3l0 -3c3,0 5,1 7,1 3,1 6,2 8,5 2,2 3,4 3,7 0,3 -1,5 -2,7 -2,1 -4,3 -7,4zm-9 25l0 -3 -1 0c-3,0 -6,-1 -8,-1l0 -20 2 0 4 0 3 0 0 -3 -3 0 -3 0c-2,0 -3,0 -3,0l0 -19c1,0 4,-1 6,-1 1,0 3,1 3,1l0 -3 -2 0 -21 0 0 2 2 0c1,0 3,0 4,1 0,1 1,3 1,6l0 31c0,3 -1,5 -1,5 -1,1 -3,2 -4,2l-2 0 0 2 23 0 0 0zm43 -21l37 0 4 12 -3 1c-1,-1 -1,-3 -2,-4 -1,-2 -2,-2 -3,-3 -1,-1 -3,-2 -4,-2 -1,0 -3,0 -6,0l-11 0 0 17 8 0c2,0 3,0 5,-1 1,-1 1,-2 2,-3 0,0 0,-2 0,-4l0 -1 3 0 0 21 -3 0 0 -2 0 -3c0,-1 -1,-2 -1,-2 -1,-1 -2,-1 -3,-1 0,-1 -1,-1 -3,-1l-8 0 0 16 0 2c0,1 0,1 1,1 0,0 1,1 2,1l7 0c4,0 7,-1 9,-2 2,-1 4,-2 6,-4 1,-2 2,-4 3,-7l3 1 -5 15 -38 0 0 -3 1 0 3 0c1,0 1,-1 1,-2 0,0 1,-1 1,-2l0 -33c0,-1 -1,-2 -1,-3 0,0 0,-1 -1,-1l-4 0 0 -3zm-188 118l-13 0 -13 -19 0 -7c1,0 3,-1 4,-2 2,-2 4,-4 4,-7 0,-4 -1,-6 -3,-8 -1,-2 -3,-2 -5,-2l0 -3c3,0 5,0 7,1 3,0 4,2 6,4 2,2 2,4 2,7 0,3 0,5 -2,8 -2,2 -5,3 -9,4l10 14c2,3 4,5 5,7 2,1 5,1 7,1l0 2zm-26 -19l0 -7c-2,1 -4,1 -6,1l-1 0 -1 0 0 -20c2,0 4,-1 5,-1 1,0 2,0 3,1l0 -3c-2,-1 -3,-1 -4,-1l-18 0 0 2 2 0c1,0 3,0 4,2 1,0 1,2 1,5l0 31c0,3 0,5 -1,6 -1,1 -2,1 -4,1l-2 0 0 2 21 0 0 -2 -2 0c-2,0 -3,0 -4,-1 -1,-1 -1,-3 -1,-6l0 -14 1 0 1 0 3 0 3 4zm53 -136l19 0 0 3 -1 0c-2,0 -3,1 -3,1 -1,0 -1,1 -1,2 -1,0 -1,1 -1,4l0 32c0,1 0,2 1,3 0,1 0,1 1,1 0,1 1,1 3,1l1 0 0 3 -19 0 0 -3 2 0c1,0 2,0 3,-1 0,0 1,0 1,-1 0,-1 0,-2 0,-3l0 -33c0,-2 0,-3 0,-4 0,0 -1,-1 -1,-1 -1,-1 -2,-1 -3,-1l-2 0 0 -3zm-8 82l3 0 0 1 30 0 1 -1 2 0 5 14 -3 0c-1,-3 -3,-5 -5,-7 -2,-2 -5,-3 -8,-3 -2,0 -3,0 -3,1 0,0 0,0 0,0l0 3 0 32c0,2 0,3 0,3 0,1 0,1 0,2 1,0 1,0 2,0 1,1 2,1 4,1l0 2 -19 0 0 -2c2,0 3,0 3,-1 1,0 2,0 2,-1 1,-1 1,-2 1,-3l0 -34 0 -2c0,0 -1,0 -1,0 0,-1 -1,-1 -2,-1 -2,0 -5,1 -6,1 -1,1 -3,2 -4,4 -2,1 -3,3 -4,5l-3 0 5 -14zm-67 -52l20 0 0 3 -2 0c-1,0 -3,1 -3,1 -1,0 -1,0 -2,1l0 3 0 34 0 3c0,0 1,1 1,1l3 0 3 0c3,0 6,0 8,-1 2,-1 4,-3 6,-4 1,-2 3,-4 4,-8l3 1 -5 16 -36 0 0 -3 2 0c2,0 2,0 3,0 0,-1 1,-1 1,-2 1,0 1,-2 1,-3l0 -33c0,-2 0,-4 -1,-4 0,-1 0,-1 -1,-1 -1,0 -1,-1 -3,-1l-2 0 0 -3zm118 195l14 1 0 -1 0 0 0 0 0 0 -1 -1 0 0 0 -1 0 0 -1 -1 0 0 -1 -2 0 0 0 -1 0 0 -1 -1 0 0 0 0 0 -1 -1 0 0 0 0 -1 0 0 -1 -1 0 0 0 -1 0 0 -1 -1 0 0c-8,-11 -16,-19 -27,-23l0 0 -1 0 0 -1 -1 0 0 0 -1 0 0 0 0 0 0 0 -1 0 -1 -1 0 0 0 0 -1 0 0 0c-5,-1 -10,-1 -15,0l0 0 -1 0 0 0c-1,0 -3,1 -5,1l0 0c-1,0 -2,1 -3,1l0 0 -1 0 0 1c-8,2 -16,7 -25,13 -4,3 -8,5 -11,7l0 0 -1 0 0 0 -1 0 0 0 0 1 0 0 -1 0 0 0 0 0 -1 0 0 1 0 0 -1 0 0 0 0 0 -2 1 0 0 -1 0 0 0 0 0 0 0 -1 0 0 0 -1 1 0 0 0 0 0 0 -1 0 0 0 0 0 0 0 -1 0 0 0 -1 1 0 0 0 0 0 0 -1 0 0 0c-1,0 -1,0 -2,0l0 0 0 0c-3,1 -6,1 -10,1l0 0 0 0 -1 0 0 0 0 0 0 0 -1 0 0 0 -1 0 0 0 -1 0 0 0 0 0 -1 0 0 0 -1 0 0 0 0 0 0 0 -1 0 0 0c-12,-2 -23,-9 -34,-20l0 0 0 -1 -1 0 0 -3 -2 -184 -6 0 0 190c11,14 23,23 36,27 14,4 28,2 42,-5 6,-3 11,-7 15,-10 9,-7 18,-13 31,-14 8,0 15,2 21,5 6,4 11,9 16,14l4 6 -5 1c-5,0 -8,3 -10,7 0,1 -1,2 -1,3 0,2 1,3 1,4 2,5 5,8 10,8l0 0 23 0 0 4 0 -4 23 0c4,-1 6,-3 8,-5 1,-2 1,-4 1,-5 0,-2 0,-4 -1,-6 -2,-3 -5,-5 -8,-6l-3 -1 2 -5c3,-7 7,-12 14,-16 6,-3 14,-5 25,-4 14,1 22,8 30,14 7,7 15,13 26,15 10,1 21,0 32,-5 10,-4 21,-11 33,-20l0 -192 -9 0 0 184 0 3 0 0 0 0 0 0c-8,8 -16,13 -24,16l0 0 0 1 0 0 -1 0 0 0c-6,3 -11,4 -17,4 -14,1 -26,-4 -39,-16 -17,-11 -31,-15 -45,-12l0 0 0 0 -1 0c-3,1 -5,1 -7,2 -2,1 -4,2 -5,3l0 0 -1 0 0 0c-11,6 -20,16 -29,29l0 0 0 0 -2 3 15 0 0 13 -37 -1 0 -13zm19 -229l0 200c14,-13 26,-23 38,-28l0 0 1 -1 0 0 0 0 1 0 0 0 0 0c1,0 2,-1 3,-1 2,-1 4,-1 6,-2l0 0c1,0 1,0 2,0l0 0 1 0 0 0 1 0 0 0c11,-1 24,3 38,13 3,1 5,3 8,5l0 0 1 0 1 1 0 0c8,4 16,8 24,9 11,1 22,-2 33,-11 0,-32 0,-65 0,-99l1 -42 0 -2 0 -6 0 -1 0 -3 0 -2 0 -3 0 -1 0 -2 0 -1 0 -2 0 -1 0 -2 0 -1 0 -2 0 -1 0 -1 0 -1 0 -2 0 -1 0 -1 0 -1 0 -2 0 -1 0 0 0 -1 0 -1 0 -1 0 -2 0 -1 0 0 0 -1 0 -1 0 -1 0 0 0 -1 0 -1 0 -1 0 -1 0 0 0 -2c-10,4 -19,8 -28,9 -9,2 -19,0 -27,-8 -20,-15 -39,-21 -56,-18 -17,2 -33,12 -48,28zm0 207l0 21c12,-19 24,-33 39,-39 11,-4 22,-5 35,0l0 0 2 1 0 0 1 0 0 0 2 1 0 0 0 0 0 0 1 0 0 0 1 1 0 0 1 0 0 0 1 1 1 0 0 0 1 1 0 0 1 0 0 0 1 1 0 0 1 0 0 0 2 2 0 0c1,0 2,1 4,2l0 0c8,8 17,13 26,15l0 0 1 0 0 0 0 0 0 0 1 1 0 0c3,0 7,0 10,0 13,-1 26,-8 41,-20l0 -191 -13 -9c0,15 0,30 0,45l0 0 0 6 0 0 0 2 0 0 0 1 0 1 0 1 0 0 0 1 0 1 0 1 0 0 0 1 0 1 0 1 0 1 0 0 0 1 0 1 0 1 0 0 0 1 0 1 0 1 0 0 0 2 0 0 0 1 0 0 0 3 0 0 0 2 0 0 0 1 0 1 0 1 0 0 0 1 0 1 0 1 0 0 0 1 0 1 0 1 0 1 0 0 0 1 0 1 0 6 0 23 0 0 0 1 0 1 0 1 0 0 0 1 0 1 0 1 0 0 0 1 0 1 0 1 0 1 0 0c0,22 0,43 0,65l0 2 0 0 0 0 0 0 -1 1c-1,1 -3,2 -4,4l0 0 -1 0 0 0 0 0 0 0 -1 0c-9,7 -18,8 -28,7 -11,-1 -23,-7 -34,-15 -14,-10 -26,-13 -37,-13l0 0 0 0 0 0 -1 0 0 0 -1 0 0 0 0 0 0 0c-3,1 -6,1 -9,2 -14,5 -27,16 -43,31zm-1 22l0 -23c-14,-16 -28,-26 -44,-29 -6,-2 -13,-2 -21,-1l0 0 0 0c-9,2 -19,6 -29,12 -4,3 -8,5 -12,7l0 0 -1 0 0 0 0 1 0 0 -1 0 0 0 0 0 0 0 -1 0 0 0 -1 1 0 0c-8,3 -15,4 -22,4 -11,-1 -20,-5 -28,-11l0 -1 0 0 0 -3 0 0 0 -190 -14 9c1,31 1,63 2,94 0,32 0,64 1,96 11,12 23,18 35,20l0 0 1 0 0 0 1 0 0 0 0 0 0 0c13,1 26,-4 39,-13 12,-8 22,-13 31,-15l0 0 1 -1 0 0 1 0 0 0 1 0 0 0 0 0 0 0 1 0 0 0 0 0c8,-2 16,-1 22,2 8,3 15,8 21,14l0 1 0 0 1 1 0 0 1 1 0 0 0 1 0 0 1 1 0 0 1 0 0 0 0 1 1 2 0 0c4,5 8,12 12,19zm0 -29l0 -200c-16,-14 -31,-23 -46,-27 -16,-4 -30,-1 -45,11l0 0c-11,8 -23,13 -34,14 -11,1 -22,-1 -34,-7l0 1 0 192c3,2 6,4 8,5l0 0 1 0 0 0 1 1 0 0 0 0 0 0 1 0 0 0 0 1 0 0 1 0 0 0 0 0 0 0 0 0 0 0 1 0 0 0 0 0 0 0 1 1 0 0 0 0 0 0 0 0 0 0 1 0 0 0 1 0 0 0 0 1 0 0 1 0 0 0 0 0 0 0 0 0 0 0 1 0 0 0 0 0 0 0 1 0 0 0 0 0 0 0 1 1 0 0 0 0 0 0c2,0 5,0 7,1 8,0 18,-2 29,-8l0 0 0 0c3,-1 6,-3 9,-5 14,-10 28,-14 41,-13l0 0 1 0 0 0 1 0 0 0c3,0 5,1 8,1 4,1 8,3 12,5l0 0 0 0 0 0 1 0 0 0 0 0c9,5 17,11 25,19l0 0 0 0c1,2 3,4 5,6zm-21 53l0 -1 0 1zm461 -167l14 0 14 37 13 -37 14 0 0 3 -1 0c-2,0 -3,0 -3,0 -1,0 -1,1 -1,2 -1,0 -1,1 -1,2l0 32 0 4c1,0 1,1 2,1 0,0 1,0 3,0l1 0 0 3 -18 0 0 -3 2 0c1,0 2,0 2,0 1,0 1,0 1,-1 1,0 1,-1 1,-1l0 -2 0 -35 -15 42 -3 0 -15 -41 0 33c0,2 0,3 0,4l1 1c1,0 2,0 4,0l1 0 0 3 -16 0 0 -3 1 0c1,0 2,0 3,0 0,0 1,-1 2,-1 0,-1 0,-3 0,-4l0 -31c0,-2 0,-3 0,-3 -1,-1 -2,-2 -2,-2 0,0 -1,0 -3,0l-1 0 0 -3zm94 -2l19 0 0 3 -1 0c-2,0 -3,0 -3,0 -1,1 -1,1 -1,2 -1,1 -1,2 -1,4l0 32c0,1 0,3 1,4 0,0 0,1 1,1 0,0 1,0 3,0l1 0 0 3 -19 0 0 -3 2 0c1,0 2,0 3,0 0,0 1,-1 1,-1 0,-1 0,-2 0,-4l0 -33c0,-1 0,-3 0,-4 0,0 -1,-1 -1,-1 -1,0 -2,0 -3,0l-2 0 0 -3zm108 -61c3,0 5,1 6,1 5,2 8,4 10,8 4,4 5,9 5,15 0,4 0,7 -2,11 -2,3 -3,5 -6,7 -2,2 -4,3 -7,4 -2,0 -4,1 -6,1l0 -4 1 0c2,-1 4,-1 5,-2 1,-1 3,-1 4,-3 1,-2 2,-4 3,-7 1,-2 1,-4 1,-8 0,-3 0,-5 -1,-7 -1,-3 -2,-5 -3,-7 -2,-2 -4,-3 -5,-4 -2,0 -3,-1 -5,-1l0 -4zm-26 3c2,0 4,0 4,0 1,0 1,0 1,1 1,1 1,2 1,3l0 32c0,2 0,3 -1,3 0,1 0,1 -1,2 0,0 -1,0 -1,0l-1 0 -2 0 0 3 23 0 3 0 0 -4c-2,0 -3,0 -4,0l-10 0 0 -40 7 0 6 0c0,0 1,1 1,1l0 -4c-3,0 -6,0 -10,0l-16 0 0 3zm-1 63l1 16 -1 0c-2,-5 -4,-8 -6,-10 -2,-2 -5,-3 -8,-3 -3,0 -6,0 -8,2 -2,2 -4,4 -5,7 -1,4 -2,8 -2,13 0,4 1,8 1,11 2,3 4,5 6,7 3,2 5,3 8,3 3,0 5,-1 8,-2 2,-2 4,-4 7,-8l0 0c-1,5 -4,8 -7,10 -3,1 -6,2 -10,2 -7,0 -12,-2 -16,-8 -3,-4 -4,-9 -4,-15 0,-4 1,-9 3,-13 1,-4 4,-6 7,-9 3,-2 7,-3 11,-3 3,0 6,1 9,3 1,0 2,0 2,0 0,0 1,0 1,0 1,-1 1,-1 2,-3l1 0zm-130 -86l1 16 -1 0c-1,-5 -3,-8 -6,-11 -2,-2 -5,-3 -8,-3 -3,0 -6,1 -8,3 -2,1 -3,4 -5,7 -1,3 -2,8 -2,13 0,4 1,7 2,11 1,3 3,5 6,6 2,2 5,3 8,3 2,0 5,-1 7,-2 2,-1 5,-4 7,-7l1 0c-2,4 -5,7 -8,9 -2,2 -6,3 -10,3 -6,0 -12,-3 -16,-8 -3,-5 -4,-10 -4,-15 0,-5 1,-9 3,-13 2,-4 4,-7 8,-9 3,-2 6,-3 10,-3 4,0 6,1 9,2 1,1 2,1 2,1 1,0 1,0 2,0 0,-1 1,-2 1,-3l1 0zm169 140l-8 0 0 -3 7 0 -7 -18 0 -8 2 -3 1 0 14 38c1,4 3,5 4,6 1,1 2,2 3,2l0 1 -16 0 0 -1c2,0 3,0 3,-1 1,-1 1,-1 1,-2 0,-1 0,-2 -1,-5l-3 -6zm-8 0l0 -3 -7 0 7 -18 0 -8 -13 35c-1,3 -3,5 -3,7 -1,0 -2,1 -4,1l0 1 13 0 0 -1c-2,0 -3,0 -4,-1 0,-1 0,-1 0,-2 0,-1 0,-2 0,-4l3 -7 8 0zm-67 -110l-8 0 0 -3 7 0 -7 -18 0 0 0 -8 1 -3 1 0 15 39c1,2 2,5 3,6 1,0 2,1 4,1l0 1 -17 0 0 -1c2,0 4,-1 4,-1 0,0 1,-1 1,-2 0,-1 -1,-3 -1,-4l-3 -7zm-8 0l0 -3 -7 0 7 -18 0 -8 -13 35c-2,3 -3,6 -4,7 0,0 -1,1 -3,1l0 1 13 0 0 -1c-2,0 -4,-1 -4,-1 -1,0 -1,-1 -1,-2 0,-1 0,-2 1,-4l3 -7 8 0zm-163 23l-8 0 0 -2 7 0 -6 -19 -1 0 0 -7 2 -3 1 0 14 38c1,3 3,5 4,6 0,1 2,1 4,2l0 1 -17 0 0 -1c2,-1 3,-1 3,-1 1,-1 1,-2 1,-2 0,-1 0,-3 -1,-5l-3 -7zm-8 0l0 -2 -7 0 7 -19 0 -7 -13 35c-1,3 -3,5 -4,6 0,1 -1,1 -3,2l0 1 13 0 0 -1c-2,-1 -3,-1 -4,-2 0,0 -1,-1 -1,-1 0,-1 1,-3 1,-5l3 -7 8 0zm-21 47l37 0 5 13 -4 1c0,-2 -1,-4 -2,-5 -1,-1 -2,-2 -3,-3 -1,-1 -2,-1 -3,-2 -2,0 -4,0 -7,0l-11 0 0 18 9 0c2,0 3,-1 4,-2 1,0 2,-1 2,-3 1,0 1,-1 1,-4l0 0 3 0 0 20 -3 0 0 -1 0 -4c-1,-1 -1,-1 -2,-2 -1,0 -1,-1 -2,-1 -1,0 -2,0 -3,0l-9 0 0 15 0 3c1,0 1,1 1,1l3 0 7 0c3,0 6,-1 9,-2 1,0 3,-2 5,-4 1,-2 3,-4 4,-6l3 1 -6 14 -38 0 0 -2 2 0c1,0 2,0 2,-1 1,0 1,0 2,-1 0,-1 0,-1 0,-3l0 -32c0,-2 0,-3 0,-3 -1,-1 -1,-1 -2,-2l-4 0 0 -3zm123 124l14 1c-8,-15 -17,-27 -28,-33l0 0 -1 -1 0 0c-1,-1 -3,-1 -5,-2 -15,-6 -34,-2 -57,14 -2,1 -3,2 -5,4l0 0 -1 0 0 0 0 0c-11,7 -22,10 -33,9 -3,0 -7,-1 -11,-2l0 0c-2,-1 -4,-2 -6,-2l0 0c-7,-4 -14,-9 -21,-17l0 0 -1 0 0 -3 -3 -184 -5 0 0 190c11,14 23,23 36,27 14,3 28,2 42,-5 6,-3 11,-7 15,-10 9,-7 18,-13 32,-14l0 0c7,0 14,2 20,5 6,4 11,9 16,14l5 6 -6 1c-5,0 -9,3 -10,7 -1,1 -1,2 -1,3l0 0c0,1 1,3 1,4 2,5 5,8 10,8l0 0 22 0 0 3 0 -3 23 0c4,-1 7,-3 8,-5 2,-2 2,-4 2,-5 0,-2 -1,-4 -2,-6 -1,-3 -4,-5 -8,-6l-2 -1 2 -5c3,-7 7,-13 13,-16 7,-4 15,-5 26,-4 14,1 22,8 30,14 7,7 15,13 27,15 9,1 20,0 31,-5 10,-4 21,-11 33,-20l0 -192 -8 0 0 184 0 3 -1 0c-14,13 -27,20 -40,21l0 0 0 0 -1 0 0 0 0 0 -1 0 0 0 0 0 0 0 -1 0 0 0c-1,0 -2,0 -3,0l0 0 0 0 -1 0 0 0 0 0 0 0c-1,0 -2,0 -3,0l0 0 -1 0 0 0 -1 0 0 0 0 0 -2 -1 0 0 0 0 0 0 -1 0 0 0 0 0 0 0 -1 0 0 0 -1 0 0 0 0 0 -1 -1 0 0c-8,-2 -15,-7 -22,-13l0 0 -1 -1 0 0c-1,-1 -2,-2 -3,-2l-1 0 -1 -1 0 0 -1 -1 0 0c-2,-1 -3,-1 -4,-2l0 0 -1 0 0 0 -1 -1 0 0 -1 0 0 0c-1,-1 -2,-1 -3,-2l0 0 -1 0 -2 -1 0 0 -1 0 0 0 -1 0 0 0 -1 -1 0 0 -1 0 0 0 0 0 0 0 -1 0 0 0 -1 -1 0 0 -1 0 0 0 -1 0 0 0 -1 0 0 0 0 0 -1 0 0 0 -1 -1 0 0 -1 0 0 0 -1 0 0 0 -1 0 0 0 0 0 0 0c-7,0 -14,1 -20,3 -6,3 -12,6 -17,11l0 0 -1 0 0 1c-7,6 -13,14 -19,23l16 0 0 13 -38 -1 0 -13zm19 -229l0 200c7,-6 13,-11 18,-16l0 0 1 -1 0 0 1 0 0 0 0 -1 0 0 1 0 0 0 1 -1 0 0 0 0 0 0 1 -1 0 0 1 0 0 0 0 0 0 0 1 -1 0 0 1 0 0 0 0 -1 0 0 1 0 0 0 0 -1 0 0 1 0 0 0 1 -1 0 0 1 0 0 0c4,-3 8,-5 13,-6 2,-1 4,-1 6,-2l0 0 1 0 0 0c12,-2 25,2 41,12l0 0c12,8 23,14 34,16 11,1 22,-2 32,-10l0 0 0 0 0 0 1 -1c0,-32 0,-66 0,-99 0,-18 1,-36 1,-55l0 0 0 -1 0 0 0 -2 0 0 0 -1 0 0 0 -2 0 0 0 -1 0 -1 0 -1 0 0c0,-10 0,-20 0,-31l0 -2c-10,4 -19,8 -28,9 -9,1 -19,-1 -27,-9 -20,-14 -39,-20 -56,-17 -17,2 -33,12 -48,28zm0 206l0 21c12,-18 25,-32 39,-38 12,-5 26,-5 41,2l0 0 1 1 0 0 0 0c4,2 9,4 13,7l0 0 0 0 0 0 1 1 0 0 0 1 0 0 1 0 0 0 1 1 0 0 0 0 0 0 1 1 0 0 0 0 0 0 1 0 0 0c6,6 13,9 20,11l0 0 0 0 0 0 1 0 0 0 1 0 0 0 1 0 0 0 0 0c3,1 6,1 10,1 1,0 2,0 4,-1l0 0 0 0 1 0 0 0 0 0c9,-1 17,-5 26,-12l0 0 1 0 0 0 1 -1 0 0 0 0 0 0 1 -1 0 0 1 0 0 0 0 -1 0 0 1 0 0 0 1 -2 0 0 1 0 0 0 1 -1 0 0 1 -1 1 0 0 0 0 -185 0 -3 0 0 0 -3 -12 -9c-1,31 -1,63 -1,95 0,20 0,39 0,59l0 1 0 4 0 0 0 3 0 1 0 2 0 1 0 1 0 0 0 1 0 1 0 1 0 0 0 1 0 1 0 1 0 1 0 0 0 1 0 1 0 1 0 0 0 1 0 1 0 1 0 0 0 2 0 0 0 1 0 0 0 2 0 0 0 1 0 0 0 2 0 0 0 1 0 1 0 1 0 0 0 2 0 0 0 2 0 0 -1 0 0 1c-5,4 -10,7 -16,9l0 0c0,0 -1,1 -1,1l0 0 -1 0 0 0 0 0 0 0 -1 0 0 0 0 0 -1 0 0 0c-3,1 -7,1 -10,1l0 0 -1 0 0 0 -1 0 0 0 0 0 0 0 -1 0 0 0 0 0 0 0 -1 0 0 0 -1 0 0 0c-5,-1 -11,-3 -16,-6l0 0 -1 0 0 0 -1 0 0 0 0 0 0 0 -1 -1 0 0 0 0 0 0 -1 0 0 0 0 0 0 0 -1 -1 0 0c-3,-2 -7,-4 -10,-6l0 0 -1 0 0 0 0 -1 0 0 -1 0 0 0c-7,-5 -13,-8 -19,-10l-1 0 0 0 -1 -1 0 0 -1 0 0 0 0 0 0 0 -1 0 0 0c-9,-3 -17,-2 -25,0 -2,1 -3,1 -4,2l0 0 0 0 -1 0 0 0c-12,5 -23,15 -37,28l0 0 -1 0 0 0zm-1 23l0 -23c-5,-5 -9,-10 -14,-14l0 0 -1 0 0 -1c-8,-6 -15,-10 -23,-13l0 0 -1 0 0 0 -1 0 0 0 0 -1 0 0 -1 0 0 0c-1,0 -2,0 -2,0l-1 -1 0 0 0 0c-12,-2 -25,-1 -38,6l0 0 -1 0 0 0c-4,2 -7,4 -11,6 -8,6 -16,9 -23,11l0 0 -1 0 0 0 -1 0 0 0 0 1 0 0 -1 0 -1 0 0 0 -1 0 0 0 0 0 0 0 -1 0 0 0 0 0 0 0 -1 0 0 0 0 0 0 0c-3,1 -6,1 -8,1 -3,0 -5,-1 -7,-1l0 0 -1 0 0 0 0 0 0 0 -1 -1 0 0 0 0 0 0 -1 0 0 0 0 0 0 0 0 0 0 0 -1 0 0 0 0 0 0 0 -1 -1 0 0 0 0 0 0 -1 0 0 0 -1 0 0 0 -1 -1 0 0 0 0 0 0 -1 0 0 0 0 0 0 0 -1 -1 0 0 0 0 0 0 0 0 0 0 -1 0 0 0 0 0 0 0 -1 -1 0 0 0 0 0 0 0 0 0 0 -1 0 0 0 0 0 0 0 -1 -1 0 0c-3,-2 -5,-3 -7,-5l-1 0 0 -3 0 -190 -13 9 0 2 0 0 0 3 2 167 1 18c6,6 13,11 19,14l1 1 0 0 1 0 0 0 0 1 1 0 1 0 0 0 0 0 0 0 1 1 0 0 0 0 0 0 1 0 0 0c4,2 8,2 13,3 12,1 25,-4 38,-13l0 0c11,-8 21,-13 31,-16l1 0 0 0 0 0 0 0 1 0 0 0 1 0 0 0 1 0 0 -1 1 0 0 0 1 0 0 0c7,-1 14,0 20,3 15,5 28,20 38,41zm0 -30l0 -199c-16,-14 -32,-24 -47,-27 -15,-4 -30,-1 -44,11l0 0c-11,8 -23,13 -34,14 -11,1 -22,-1 -34,-7l0 1 0 192c8,6 17,10 27,10 3,1 6,0 10,0l0 0 0 0 0 0 1 0 1 -1 0 0 0 0 1 0 0 0 0 0 0 0 1 0 0 0 0 0 0 0 0 0 1 0 0 -1 0 0 1 0 0 0c7,-2 14,-5 22,-10 8,-5 15,-9 22,-11l0 0c1,0 2,0 4,-1l0 0 0 0 0 0 1 0 0 0 1 0 0 0 1 0 0 0 0 0 0 0 1 -1 0 0 1 0 0 0 1 0 0 0 1 0 0 0 0 0 1 0 1 0 1 0 0 0 0 0 0 0 1 0 0 0 1 0 0 0 1 0 0 0 1 0 0 0 0 0 0 0 1 0 0 0 1 0 0 0 1 0 0 0 0 0 0 0 1 0 0 0 1 0 0 0 1 0 0 0 0 0 0 0 1 0 0 0 1 1 0 0c1,0 2,0 3,0 9,2 17,6 25,13l0 0 1 0 0 0 0 1 1 0 0 0 0 0c6,5 11,10 16,15zm-21 53l0 0 0 0zm-513 896l0 1 -8 -11 -35 30 34 47 17 23 36 -28 -44 -61 0 -1zm-41 213l41 -28 0 0 0 0 13 -9 0 0 0 0 21 29 -53 40 29 40 53 -37 0 0 0 0 21 27 -51 41 31 42 87 -68 0 0 1 0 9 13 25 -19 0 9 -21 16 1 0 6 10 14 -11 0 9 -10 8 1 0 6 8 3 -2 0 7 0 -7 5 -4 0 9 -4 3 0 0 5 8 5 -3 0 9 0 -9 20 -16 0 9 -20 16 0 0 5 8 15 -11 0 9 -10 8 0 0 14 20 38 52 -136 192 -33 47c-7,-1 -21,0 -27,3l0 0 0 0 -3 -2 0 0 0 0 -1 0 -1 -1c-20,6 -28,21 -25,38l-1 0 0 0 -15 -6 0 0 0 0 0 0 -1 0c-5,-2 -11,-4 -16,-5l0 0 0 0c-5,-1 -10,-2 -15,-2 -6,0 -12,0 -17,1 -17,4 -31,13 -42,28l-1 -1 0 1c-4,-9 -11,-15 -20,-18 -2,-1 -5,-2 -8,-2l0 0c-1,0 -2,0 -3,0 -17,0 -32,14 -32,32 0,14 10,26 22,30 3,1 7,2 10,2l0 0 1 0 0 0 0 0 1 0c1,0 3,0 5,0l0 0 1 0c-9,32 6,59 58,96l1 1c0,0 -1,0 -1,-1l0 1c0,-1 -1,-1 -2,-1l0 0 0 0 0 0 0 0 0 0 0 0 -1 0c-18,0 -32,15 -32,32 0,14 9,26 22,31 3,1 7,2 10,2l0 0 0 0 0 0 0 0c4,0 8,-1 11,-2 12,-4 22,-16 22,-30 0,-5 -1,-9 -3,-13l1 0 -1 0c16,10 30,18 43,22l0 0 0 0 0 0 1 0c9,4 18,6 27,7l0 0 0 0c6,1 12,0 18,-1 5,-1 11,-2 17,-4l0 0 0 0c2,12 10,22 22,26 1,0 6,1 8,2l3 0c17,0 32,-15 32,-32 0,-14 -9,-26 -22,-31l-4 -1c1,-1 2,-3 2,-4 19,-32 13,-65 -12,-94 -2,-3 -7,-8 -9,-11 3,0 7,-2 9,-2 13,-6 20,-19 16,-39l-3 -2c1,-9 -1,-17 -8,-25l-2 -3 8 -12 53 -73 0 0 0 0 5 -8 0 1 0 -1 6 -7 0 1 0 -1 20 -28 0 1 0 -1 67 -94 0 1 1 -1 0 -77 -1 0 0 0 -43 -61 -24 19 0 -9 20 -16 -6 -8 -14 11 0 -9 10 -8 -6 -8 -4 4 0 -9 0 -1 0 0 0 -1 0 1 -6 -8 -14 11 0 -10 10 -7 -7 -10 -3 3 0 -8 0 8 -6 4 0 -9 5 -4 -5 -6 0 -1 0 1 -5 -7 0 -1 0 1 -138 -195 -36 28 0 1 0 0 11 14 -89 67 25 35zm232 91l0 9 -5 4 0 -9 5 -4zm0 -24l0 9 -5 4 0 -9 5 -4zm6 42l0 10 -6 4 0 -9 6 -5zm0 -23l0 10 -6 4 0 -9 6 -5zm20 8l-20 15 0 10 20 -16 0 -9zm919 511c2,-3 4,-6 5,-11 2,-6 3,-14 4,-22 2,9 4,20 2,34 -2,10 0,19 7,25 2,7 9,18 -3,11 -4,-8 -7,-14 -12,-10 2,20 6,40 15,60 5,-2 10,-3 15,-5 15,-4 29,-8 44,-11 10,-2 20,-4 30,-6l19 -3c17,-2 35,-3 53,-4l2 0c18,0 36,1 54,2 7,1 13,2 19,3 13,2 25,3 38,7 12,2 24,5 36,9 7,2 14,5 21,7 5,-13 9,-26 12,-39 2,-8 4,-16 6,-23 7,-33 14,-65 32,-98 -17,4 -28,10 -38,16 -8,6 -15,11 -21,17l-3 3 -9 7 0 -5 0 0 0 -1 -1 1 1 -7 0 -8c0,-3 0,-5 0,-7 -1,-5 -3,-10 -5,-15 -3,-10 -9,-20 -17,-29 -5,1 -10,2 -14,4 -9,4 -16,9 -23,14 -6,5 -11,11 -15,18 -3,4 -5,8 -7,13l-6 12 -3 -13 -3 -10c-3,-11 -8,-23 -15,-33 -8,-13 -19,-23 -33,-32 -3,1 -4,3 -6,5 -13,12 -23,23 -30,33 -8,14 -13,26 -15,38l-4 18 -5 -17c-1,-1 -1,-2 -1,-2 -4,-14 -10,-26 -19,-37l-1 -1c-7,-9 -17,-18 -29,-25 -3,-1 -5,-2 -7,-3 -3,2 -5,5 -7,7l-8 11c-12,16 -19,33 -22,49l0 1 -2 11 -7 -9c-8,-10 -16,-20 -26,-27 -5,-4 -11,-8 -17,-9 14,28 17,55 19,81l0 5zm25 -36c-2,-2 -4,-5 -6,-8 -2,2 -3,4 -1,10 1,2 4,3 5,5 0,3 1,5 2,7l0 -14zm8 13l0 -12c2,0 4,0 7,2 3,3 5,5 8,8 2,6 0,7 -4,7 -3,-5 -6,-8 -11,-5zm36 -13l0 18c-5,-8 -9,-16 -8,-26l8 8zm-36 1c-2,0 -3,1 -5,2 -1,-1 -2,-2 -3,-3l0 14c1,2 4,2 8,0l0 -1 0 -12zm49 60c8,-13 15,-27 6,-61 -2,-6 0,-12 4,-18 -3,1 -7,2 -10,3 -1,-6 -2,-12 -3,-17 -1,2 -2,3 -2,5l0 59c0,2 1,4 2,6 2,7 1,8 -2,14l0 2 0 11c1,0 3,-1 5,-4zm24 -87c0,-1 0,-2 0,-3 -1,-2 -3,-4 -4,-4 -1,1 -1,3 0,6 0,2 2,4 3,4l0 -1c0,2 0,3 1,4 0,1 0,1 0,1l0 -7zm-29 91l0 -11 -2 4c-1,5 -1,8 2,7zm-8 -47l0 -18 7 7c-4,-13 -3,-23 1,-34l0 59c-2,-4 -4,-7 -6,-11l-2 -3zm40 -43l0 10c-1,-1 -2,-2 -3,-4l0 -7 0 1 1 0c1,-1 1,0 2,0zm17 35l0 -12c1,0 2,2 3,5 1,4 1,7 -1,8 -1,0 -1,0 -2,-1zm0 -12c-1,-1 -2,-1 -3,-1 -1,1 -2,4 0,8 0,2 1,4 3,5l0 -12zm-17 -13l0 -10c1,1 1,2 2,4 1,3 1,6 -1,6 0,0 -1,0 -1,0zm66 -3c-2,-2 -4,-7 -4,-12 -4,9 -1,29 4,50l0 -38zm3 1l0 47c-1,-4 -2,-7 -3,-10l0 -38c1,1 2,1 3,1zm0 -53l0 11c-2,-1 -3,-3 -3,-6 0,-2 1,-4 3,-5zm0 11c0,1 2,1 3,1l0 -13c-1,0 -3,0 -3,1l0 11zm0 89c1,2 2,5 3,8l0 -63 -2 5c0,1 -1,2 -1,3l0 47zm5 -64l0 80c-1,-3 -2,-6 -2,-8l0 -63c0,-3 1,-6 2,-9zm0 -36l0 11c-1,1 -1,1 -2,1l0 -13c1,0 1,0 2,1zm52 87l0 -15c2,-1 3,-1 4,0 3,1 3,6 1,10 -1,2 -3,4 -5,5zm0 -15c-2,1 -4,2 -5,5 -2,4 -1,9 1,10 1,1 3,1 4,0l0 -15zm-52 -61l0 -11c2,1 3,3 3,5 0,3 -1,5 -3,6zm0 105l0 -80c1,-4 2,-8 3,-11 1,4 2,22 8,16 3,-2 6,-8 9,-18 0,17 6,32 -10,52 -2,3 -3,7 -4,10 0,4 -3,24 2,25 1,0 2,0 2,1 0,3 -2,18 -8,10 0,-2 -1,-4 -2,-5zm68 -56l0 14c-3,-1 -4,-5 -2,-10 0,-1 1,-3 2,-4zm41 65l0 -10c2,7 1,9 0,10zm0 -72c-1,2 -1,3 -1,5 -6,-3 -7,-8 -10,-13 -4,12 -2,23 5,31 3,9 2,19 -2,30 -3,7 -2,14 3,20 2,0 3,0 5,-1l0 -10c-1,0 -1,-1 -1,-2l1 -6 0 -54zm-38 21c2,-1 4,-3 5,-6 1,-4 0,-9 -3,-10 0,0 -1,0 -2,0l0 16zm-3 0l0 -14c1,-1 2,-1 3,-2l0 16c-1,1 -2,1 -3,0zm47 -37l0 57c-1,2 -3,5 -5,7l-1 6 0 -54c1,-8 4,-14 6,-16zm62 34c-9,14 -3,44 -11,68 8,-10 10,-22 11,-33l0 -35zm-33 27l0 -16c1,0 3,0 4,0 3,2 3,6 1,11 -1,2 -3,4 -5,5zm0 -16c-2,1 -4,3 -4,6 -3,4 -2,9 0,10 1,0 3,0 4,0l0 -16zm-29 12l0 -57c1,-1 2,-2 3,-1 -3,12 1,24 3,33 1,8 0,16 -6,25zm68 -28l0 8c-4,10 -4,21 -6,32l0 -35c2,-2 4,-4 6,-5zm0 8c2,-4 4,-7 6,-10 -2,0 -4,1 -6,2l0 8zm-98 -458c1,-1 3,-4 4,-10 2,-5 3,-13 4,-21 2,10 4,20 2,33 -1,10 0,18 6,23 3,7 9,18 -2,11 -4,-7 -6,-13 -12,-10 2,20 5,39 15,59 4,-2 9,-4 14,-5 14,-4 28,-8 42,-11 9,-2 19,-3 28,-5l19 -3c17,-2 34,-4 50,-4l2 0c17,0 35,0 53,2 6,1 11,2 18,3 11,1 24,3 36,6 11,3 22,6 34,9 7,2 14,5 21,7 4,-13 8,-25 11,-38 2,-7 3,-15 5,-22 7,-31 14,-62 31,-93 -16,4 -27,9 -36,15 -8,5 -14,11 -20,17l-4 2 -8 7 0 -5 0 0 0 -5 0 0 1 -10c0,0 0,0 0,0 -1,-2 -1,-4 -1,-7 -1,-4 -2,-9 -4,-13 -4,-10 -9,-19 -17,-29 -5,2 -9,3 -13,5 -9,4 -16,8 -22,13 -6,5 -10,11 -14,17 -3,4 -5,8 -8,13l-5 12 -3 -13 -2 -9c-3,-12 -8,-23 -15,-33 -7,-11 -18,-21 -32,-30 -2,1 -4,3 -6,5 -12,11 -21,22 -28,32 -7,12 -12,24 -15,36l-3 17 -5 -17c-1,0 -1,-1 -1,-1 -4,-14 -10,-25 -19,-36l0 -1c-7,-8 -16,-16 -28,-23 -2,-1 -5,-2 -7,-4 -2,3 -5,5 -7,7l-7 10c-12,16 -19,32 -21,48l0 1 -2 11 -6 -9c-8,-10 -16,-20 -25,-27 -5,-3 -11,-6 -17,-8 13,27 16,53 18,78l1 3zm23 -33c-2,-2 -4,-5 -5,-8 -2,1 -3,3 -2,10 2,1 4,2 5,4 1,3 1,6 2,7l0 -13zm8 12l0 -11c2,-1 4,-1 7,2 2,2 5,4 7,7 2,5 0,6 -4,6 -2,-4 -6,-7 -10,-4zm34 -13l0 18c-5,-8 -9,-15 -7,-25l7 7zm-34 2c-2,0 -3,1 -5,1 -1,-1 -2,-1 -3,-2l0 13c2,2 4,2 7,-1l1 0 0 -11zm47 57c8,-13 14,-26 6,-58 -2,-6 -1,-12 4,-18 -4,1 -6,2 -10,2 -1,-5 -2,-10 -3,-15 -1,1 -2,3 -2,5l0 56c0,2 1,4 2,6 2,6 1,8 -2,13l0 2 0 11c1,-1 3,-2 5,-4zm23 -84c0,0 0,-1 0,-2 -1,-2 -3,-4 -4,-3 -1,0 -1,2 0,5 0,2 2,4 3,3l1 0c-1,1 0,3 0,4l0 1 0 -8zm-28 88l0 -11 -2 3c-1,6 0,8 2,8zm-8 -45l0 -18 7 7c-3,-12 -2,-23 1,-32l0 56c-2,-3 -4,-7 -6,-10l-2 -3zm39 -41l0 9c-1,0 -2,-2 -3,-3l0 -8 0 1c0,0 0,0 0,0 1,0 2,0 3,1zm16 33l0 -12c1,1 2,3 3,5 1,4 1,7 -1,8 -1,0 -2,0 -2,-1zm0 -12c-1,0 -2,-1 -2,0 -2,0 -2,3 -1,7 0,2 2,4 3,5l0 -12zm-16 -12l0 -9c0,1 1,2 2,4 0,2 0,5 -1,5 0,0 -1,0 -1,0zm63 -2c-2,-2 -4,-7 -4,-12 -3,9 -1,28 4,47l0 -35zm3 0l0 44c-1,-3 -2,-6 -3,-9l0 -35c1,0 2,1 3,0zm0 -51l0 11c-2,-1 -3,-3 -3,-5 0,-3 1,-5 3,-6zm0 11c1,1 2,1 3,1l0 -12c-1,0 -2,0 -3,0l0 11zm0 84c1,3 2,6 3,9l0 -60 -2 4c0,2 -1,3 -1,3l0 44zm5 -60l0 76c-1,-2 -2,-5 -2,-7l0 -60 2 -9zm0 -35l0 11c-1,1 -2,1 -2,1l0 -12c0,0 1,0 2,0zm50 84l0 -15c1,0 2,-1 4,0 2,2 2,6 0,10 -1,2 -3,4 -4,5zm0 -15c-2,1 -4,3 -5,5 -2,4 -1,8 1,10 1,0 3,0 4,0l0 -15zm-50 -58l0 -11c1,1 2,4 2,6 0,2 -1,4 -2,5zm0 100l0 -76 3 -11c0,4 2,22 8,16 2,-2 5,-8 8,-17 1,15 5,31 -10,49 -1,3 -2,7 -3,10 -1,4 -4,22 1,24 1,0 2,0 3,0 0,3 -2,18 -8,10 -1,-2 -1,-3 -2,-5zm65 -53l0 14c-3,-1 -4,-6 -2,-10 0,-1 1,-3 2,-4zm39 62l0 -9c2,6 1,8 0,9zm0 -69c0,1 -1,3 -1,5 -5,-3 -7,-7 -9,-12 -4,12 -3,21 4,30 3,8 3,17 -1,28 -3,6 -2,13 2,19 2,0 4,0 5,-1l0 -9c0,-1 -1,-2 -1,-3l1 -5 0 -52zm-36 20c1,0 4,-2 5,-5 1,-5 0,-9 -3,-10l-2 0 0 15zm-3 1l0 -14c1,-1 2,-1 3,-2l0 15c-1,1 -2,1 -3,1l0 0zm45 -36l0 54c-1,3 -3,5 -5,7l-1 6 0 -52c1,-8 4,-13 6,-15zm60 32c-9,14 -3,42 -12,65 9,-10 11,-20 12,-31l0 -34zm-32 26l0 -14c1,-1 2,-1 4,0 2,1 2,5 1,9 -2,2 -3,4 -5,5zm0 -14c-2,0 -3,2 -5,5 -2,4 -1,8 1,9 2,1 3,1 4,0l0 -14zm-28 10l0 -54c1,-1 2,-2 3,-1 -2,12 0,23 3,31 1,8 -1,16 -6,24zm65 -27l0 8c-4,10 -4,21 -5,31l0 -34c1,-2 3,-3 5,-5zm0 8c2,-3 4,-7 6,-10 -2,1 -4,1 -6,2l0 8zm-854 31c2,-2 3,-5 4,-11 3,-5 4,-13 5,-21 2,10 4,20 2,33 -2,10 -1,18 6,23 2,7 8,18 -3,11 -4,-8 -6,-13 -12,-10 2,20 6,39 15,59 5,-2 10,-4 14,-5 14,-4 28,-8 42,-11 10,-2 19,-3 29,-5l18 -3c17,-2 34,-4 51,-4l2 0c17,0 34,0 52,2 6,1 12,2 18,3 12,1 24,3 36,6 11,3 23,6 34,9 7,2 14,5 21,7 4,-13 8,-25 11,-38 2,-7 4,-15 6,-22 6,-31 14,-62 30,-93 -15,4 -27,9 -36,15 -8,5 -14,11 -20,17l-3 2 -9 7 1 -5 -1 0 1 -5 -1 0 1 -10c0,-2 -1,-4 -1,-7 -1,-4 -2,-9 -4,-13 -4,-10 -9,-19 -17,-29 -4,2 -9,3 -13,5 -9,4 -15,8 -22,13 -5,5 -10,11 -14,17 -3,4 -5,8 -7,13l-6 12 -2 -13 -3 -9c-3,-12 -8,-23 -15,-33 -7,-11 -18,-21 -32,-30 -2,1 -4,3 -5,5 -13,11 -22,22 -29,32 -7,12 -12,24 -14,36l-4 17 -5 -17c-1,0 -1,-1 -1,-1 -4,-14 -10,-25 -18,-36l-1 -1c-7,-8 -16,-16 -28,-23 -2,-1 -5,-2 -7,-4 -2,3 -4,5 -7,7l-7 10c-12,16 -18,32 -21,48l0 1 -2 11 -6 -9c-8,-10 -16,-20 -25,-27 -5,-3 -11,-6 -16,-8 12,27 15,53 17,78l1 4zm24 -35c-2,-1 -4,-4 -6,-7 -1,2 -3,3 -1,10 2,1 3,2 5,4 0,3 1,6 2,7l0 -14zm7 13l0 -11c2,-1 5,-1 8,2 2,2 4,4 7,7 2,5 -1,6 -4,6 -3,-4 -6,-7 -11,-4zm35 -13l0 18c-5,-8 -9,-15 -7,-25l7 7zm-35 2c-1,0 -2,1 -4,1 -1,-1 -2,-2 -3,-3l0 14c1,2 4,2 7,-1l0 -11zm48 57c7,-13 14,-26 5,-58 -1,-6 0,-12 4,-18 -3,1 -6,2 -9,2 -1,-5 -3,-10 -4,-15 0,1 -1,3 -2,5l0 56c1,2 2,4 2,6 2,6 1,8 -1,13l-1 2 0 11c2,-1 3,-2 6,-4zm23 -84c0,0 0,-1 -1,-2 -1,-2 -2,-4 -3,-3 -1,0 -2,2 -1,5 1,2 2,4 4,3 0,1 0,3 0,4 1,0 1,0 1,1l0 -8zm-29 88l0 -11 -2 3c0,6 0,8 2,8zm-7 -45l0 -18 6 7c-3,-12 -2,-23 1,-32l0 56c-1,-4 -3,-7 -5,-10l-2 -3zm38 -41l0 9c-1,0 -2,-2 -2,-3l0 -8 0 1 0 0c1,0 2,0 2,1zm16 33l0 -12c2,1 2,3 3,5 1,4 1,7 -1,8 0,0 -1,0 -2,-1zm0 -12c-1,0 -1,-1 -2,0 -1,0 -2,3 -1,7 1,2 2,4 3,5l0 -12zm-16 -12l0 -9c1,1 2,2 2,4 1,2 1,5 -1,5 0,0 0,0 -1,0zm63 -3c-2,-1 -3,-6 -3,-11 -4,9 -2,28 3,47l0 -36zm3 1l0 45c-1,-3 -2,-6 -3,-10l0 -36c1,1 2,2 3,1zm0 -51l0 11c-1,-1 -2,-3 -2,-5 0,-3 1,-5 2,-6zm0 11c1,1 2,1 3,1l0 -12c-1,0 -2,0 -3,0l0 11zm0 85c1,3 2,5 3,8l0 -60 -1 4c-1,2 -1,3 -2,3l0 45zm5 -61l0 76c-1,-2 -2,-5 -2,-7l0 -60c1,-3 2,-6 2,-9zm0 -35l0 11c0,1 -1,1 -2,1l0 -12c1,0 2,0 2,0zm50 84l0 -15c2,0 3,-1 4,0 3,2 3,6 1,10 -1,2 -3,4 -5,5zm0 -15c-2,1 -3,3 -4,5 -3,4 -2,8 1,10 1,0 2,0 3,0l0 -15zm-50 -58l0 -11c2,1 3,3 3,6 0,2 -1,4 -3,5zm0 100l0 -76c2,-4 3,-7 4,-11 0,4 1,22 7,16 3,-2 6,-8 8,-17 1,15 6,31 -9,49 -2,3 -3,7 -3,10 -1,4 -4,22 1,24 1,0 2,0 2,0 0,3 -2,18 -7,10 -1,-2 -2,-3 -3,-5zm65 -53l0 14c-2,-1 -3,-6 -2,-10 1,-1 2,-3 2,-4zm39 62l0 -9c2,6 2,8 0,9zm0 -69c0,1 0,3 0,5 -6,-3 -7,-7 -10,-12 -4,12 -2,21 5,30 3,8 2,17 -2,28 -3,6 -2,13 2,19 3,0 5,0 5,-1l0 -9c0,-1 0,-2 0,-3l0 -5 0 -52zm-36 20c2,0 4,-2 5,-5 2,-5 0,-9 -2,-10l-3 0 0 15zm-3 1l0 -14c1,-1 2,-1 3,-2l0 15c-1,1 -2,1 -2,1l-1 0zm46 -36l0 54c-2,2 -4,4 -6,7l-1 6 0 -52c2,-8 4,-13 7,-15zm37 8l0 -2c-1,-8 -3,-15 -5,-22 -2,-4 -3,-7 -5,-10 -4,-8 -9,-15 -16,-23l-1 -2 -3 0c-5,2 -10,3 -14,5 -11,4 -20,9 -27,16 -4,2 -6,5 -9,9 -4,4 -7,8 -10,13 -2,-7 -4,-14 -8,-21 -2,-4 -5,-8 -7,-12 -9,-14 -21,-26 -38,-35l-3 -1 -2 1c-1,1 -2,2 -2,2 -16,14 -28,27 -36,40 -6,8 -10,17 -12,25 -2,-3 -3,-6 -5,-9 -3,-7 -7,-13 -12,-19 -2,-2 -4,-5 -6,-7 -8,-8 -18,-15 -29,-21 -2,-1 -4,-2 -6,-3l-3 -1 -2 2c-3,4 -7,7 -9,10 -3,4 -6,7 -8,10 -6,8 -10,16 -14,24 -3,6 -5,12 -7,19 -4,-5 -9,-10 -14,-15 8,-94 82,-168 171,-168 91,0 166,77 171,174 -2,1 -5,3 -7,4 -8,5 -15,11 -22,17zm22 24c-9,14 -3,42 -11,65 8,-10 10,-20 11,-31l0 -34zm-32 26l0 -14c2,-1 3,-1 4,0 3,1 3,5 1,9 -1,2 -3,4 -5,5zm0 -14c-2,0 -3,2 -4,5 -2,4 -2,8 1,9 1,0 2,0 3,0l0 -14zm-27 10l0 -54c0,-1 1,-1 3,-1 -3,12 0,23 2,31 1,8 0,16 -5,24zm65 -27l0 8c-4,10 -5,21 -6,31l0 -34c2,-2 4,-4 6,-5zm0 8c1,-3 3,-7 6,-10 -2,1 -4,1 -6,2l0 8zm-966 777c225,-10 409,6 515,249l0 -1382 -515 0 0 459 308 -434 37 31 -69 97 94 70 -27 37 -57 -39 -22 30 56 42 -31 42 -55 -39 -22 28 53 43 -32 46 -92 -72 -113 157 143 201 35 50c7,-2 22,-1 28,2l3 -1 0 0 1 -1c22,5 30,22 28,39l16 -6 0 0 1 0c18,-7 36,-9 51,-6 17,4 32,14 45,29 4,-9 11,-16 20,-19 3,-1 8,-2 12,-2 19,0 34,15 34,33 0,15 -10,28 -23,32 -4,2 -8,3 -13,3 -2,0 -4,0 -6,-1 10,34 -6,62 -61,102l-1 0c1,0 3,0 5,0 19,0 33,15 33,33 0,15 -9,28 -23,32 -3,1 -8,2 -12,2 -3,0 -7,-1 -11,-1 -13,-4 -23,-17 -23,-32 0,-5 2,-10 3,-14 -16,11 -31,19 -44,24l-1 0 0 0c-18,7 -34,9 -48,6 -6,-1 -12,-2 -18,-4 -2,12 -11,22 -22,26 -2,1 -7,2 -9,3l-4 0c-18,0 -33,-15 -33,-34 0,-15 10,-27 23,-32l4 -1c-1,-2 -2,-3 -3,-4 -19,-34 -13,-69 13,-100 3,-3 7,-8 10,-10 -3,-1 -7,-3 -10,-3 -13,-6 -21,-19 -17,-41l4 -2c-1,-9 1,-18 8,-26l3 -3 -9 -13 -160 -222 0 596zm1531 -1178l0 -454 -186 0 -219 0 0 454 405 0zm0 -663l0 -445 -405 0 0 445 405 0zm-610 -445l-406 0 0 445 406 0 0 -445zm-406 654l0 454 406 0 0 -454 -406 0zm3 1946c-117,-280 -337,-268 -601,-253 -15,1 -29,2 -44,2 -119,3 -216,-3 -285,-33 -69,-29 -110,-82 -118,-174l0 -26 0 -2153 0 -28 2089 0 0 1173 0 0 0 45 0 0 0 969 -1 28c-13,66 -31,117 -80,151 -49,34 -130,51 -268,49 -42,-1 -81,-2 -118,-3 -314,-8 -408,-11 -574,253l0 0zm200 -2270c12,0 25,0 37,2 -5,-28 -9,-56 -10,-84 27,1 54,5 82,10 -5,-25 -5,-49 0,-74 -28,5 -55,9 -82,10 1,-27 5,-54 10,-82 -12,2 -25,4 -37,4 -14,0 -26,-1 -38,-4 6,27 10,55 11,83 -27,-2 -55,-5 -82,-11 4,26 5,52 0,76 27,-6 55,-10 83,-11 -1,27 -5,55 -10,83 12,-2 24,-2 36,-2zm622 0c10,0 21,0 32,2 -6,-28 -9,-56 -11,-84 27,1 54,5 82,10 -4,-25 -4,-49 0,-74 -27,5 -54,9 -82,10 2,-27 5,-54 11,-82 -11,2 -22,3 -32,4 -15,0 -30,-1 -43,-4 6,27 9,55 11,83 -28,-2 -55,-5 -83,-11 5,26 6,52 0,76 28,-6 55,-10 83,-11 -1,27 -4,55 -9,83 13,-2 27,-3 41,-2zm-12 663c12,0 25,1 38,3 -6,-28 -10,-56 -11,-84 27,2 54,5 82,10 -4,-25 -4,-50 0,-74 -28,5 -55,9 -82,10 1,-27 5,-55 11,-82 -13,2 -26,3 -38,4 -13,0 -26,-2 -38,-4 6,27 10,55 11,82 -27,-1 -55,-4 -82,-10 5,26 5,52 0,76 27,-6 55,-10 83,-11 -1,27 -4,55 -10,83 12,-2 24,-2 36,-3zm-616 -5c14,0 29,1 43,3 -5,-28 -9,-56 -10,-84 27,1 54,5 82,10 -4,-25 -4,-50 0,-74 -28,5 -55,9 -82,10 1,-27 4,-55 10,-82 -15,2 -29,4 -43,3 -11,0 -22,-1 -32,-3 6,27 10,54 12,82 -28,-1 -56,-5 -83,-10 4,26 5,52 0,76 27,-6 55,-10 83,-11 -1,27 -5,55 -10,83 10,-2 20,-2 30,-3zm506 959c-5,-102 -83,-183 -178,-183 -93,0 -170,77 -178,176 5,4 10,10 15,16 1,-7 4,-14 7,-21 4,-8 8,-16 15,-24 2,-4 5,-7 8,-11 2,-3 6,-7 9,-10l2 -3 4 2c2,1 4,1 6,2 12,7 22,14 30,23 2,2 4,4 6,7 5,6 10,12 13,20 2,2 3,6 5,9 3,-9 7,-17 13,-26 8,-14 20,-27 37,-42 1,0 2,-1 2,-1l3 -2 3 1c17,10 30,22 39,36 3,5 6,9 7,13 4,7 7,15 9,22 3,-5 7,-10 10,-14 3,-3 6,-6 9,-9 8,-7 18,-13 29,-17 4,-2 10,-3 15,-5l3 0 1 2c7,8 12,16 17,25 1,3 3,6 4,9 3,9 5,17 6,26 7,-7 14,-13 23,-18 2,-1 4,-2 6,-3zm81 -549c17,9 29,21 38,35 2,4 5,8 7,12 3,7 6,14 8,21 3,-5 6,-9 10,-13 2,-4 5,-7 8,-9 8,-7 17,-12 28,-16 4,-2 9,-3 14,-5l3 0 1 2c7,8 12,15 16,23 2,3 3,6 4,10 3,8 5,15 6,24 6,-6 13,-12 22,-17 2,-1 4,-2 6,-4 -5,-97 -79,-174 -171,-174 -89,0 -163,74 -171,168 5,4 10,9 15,15 1,-7 4,-13 7,-19 3,-8 8,-16 14,-24 2,-3 5,-6 8,-10 2,-3 5,-6 8,-10l3 -2 3 1c2,1 4,2 6,3 11,6 21,13 28,21 3,2 5,5 7,7 5,6 9,12 12,19 2,3 3,6 4,9 3,-8 7,-17 13,-25 8,-13 19,-26 35,-40 1,0 2,-1 3,-2l2 -1 3 1zm-966 670c-14,15 -34,29 -54,36l-1 1c-7,2 -13,4 -20,5 -16,2 -28,0 -38,-5 -32,-17 -30,-66 0,-78l1 0c13,-5 32,-2 56,14l-1 -2 3 1c-13,-37 2,-59 22,-67 11,-4 23,-4 33,1 18,8 31,29 17,65 -3,10 -10,20 -18,29z"/>
  </g>
  <path class="fil0" d="M5826 1855l0 0c-625,0 -1192,253 -1601,663 -410,410 -664,976 -664,1602l0 0c0,625 254,1191 664,1601 409,410 976,664 1601,664l0 0 0 0 0 0 0 -51 0 0 0 0 0 0c-611,0 -1164,-248 -1565,-648 -401,-401 -649,-955 -649,-1566l0 0 0 0 0 0c0,-612 248,-1165 649,-1566 401,-401 954,-649 1565,-649l0 0 0 -50zm0 -928l0 0c-885,0 -1686,359 -2266,939 -581,580 -939,1382 -939,2267l-1 0 1 0c0,885 358,1687 939,2266 580,581 1381,940 2266,940l0 0 0 0 0 0 0 -51 0 0c-871,0 -1659,-353 -2230,-924 -572,-571 -925,-1360 -925,-2231 0,-871 353,-1660 925,-2231 571,-571 1359,-924 2230,-924l0 0 0 0 0 0 0 -51zm0 -170c-924,5 -1761,382 -2367,989 -612,611 -990,1456 -990,2388l1 0 -1 0c0,932 378,1777 990,2388 606,607 1443,984 2367,989l0 68c-943,-6 -1796,-390 -2415,-1009 -623,-624 -1009,-1485 -1009,-2436 0,-951 386,-1813 1009,-2436 619,-619 1472,-1003 2415,-1009l0 68zm0 5628c626,0 1192,-254 1602,-664 410,-410 664,-976 664,-1601l0 0c0,-626 -254,-1192 -664,-1602 -410,-410 -976,-663 -1602,-663l0 50c612,0 1165,248 1566,649 401,401 649,954 649,1566l0 0c0,611 -248,1165 -649,1566 -401,400 -954,648 -1566,648l0 51zm0 954c886,0 1687,-359 2267,-940 581,-579 939,-1381 939,-2266 0,-885 -358,-1687 -939,-2267 -580,-580 -1381,-939 -2267,-939l0 51c871,0 1660,353 2231,924 571,571 925,1360 925,2231l-1 0 1 0c0,871 -354,1660 -925,2231 -571,571 -1360,924 -2231,924l0 51zm20 -6582l0 0 -20 0 0 -68 20 0 0 0 0 0c952,0 1813,386 2436,1009 624,623 1009,1485 1009,2436 0,951 -385,1812 -1009,2436 -623,623 -1484,1009 -2436,1009l-20 0 0 -68 20 0c933,0 1777,-378 2388,-989 612,-611 990,-1456 990,-2388l0 0 0 0c0,-932 -378,-1777 -990,-2388 -611,-611 -1455,-989 -2388,-989z"/>
  <path class="fil0" d="M7905 2068c16,26 38,48 64,66 -28,19 -55,39 -80,61 25,23 52,43 80,62 -25,16 -47,38 -65,64 -19,-29 -39,-56 -61,-81 -22,24 -43,51 -62,79 -17,-25 -38,-47 -63,-64 29,-19 55,-40 79,-61 -24,-23 -51,-45 -80,-64 25,-17 46,-38 64,-62 19,29 40,56 62,81 23,-25 44,-52 62,-81zm-1859 4660l0 35c-23,2 -45,5 -67,8l67 128 0 143 -27 2 -173 -328c-23,-42 -36,-66 -41,-69 -5,-4 -18,-6 -41,-5l-2 -27c34,-1 67,-4 98,-6 36,-4 71,-7 104,-12l2 27c-25,3 -39,6 -43,8 -4,2 -5,6 -5,10 0,4 6,18 17,40l25 53c26,-2 55,-4 86,-7zm-497 -6l-28 -4c6,-32 8,-50 7,-56 -1,-5 -5,-13 -14,-24 -9,-10 -21,-20 -36,-28 -16,-8 -32,-14 -49,-17 -29,-5 -54,-2 -75,11 -20,12 -32,31 -37,54 -4,22 -1,39 9,53 10,13 31,25 63,36 49,16 80,30 96,41 16,11 27,26 35,45 6,18 8,39 4,62 -8,40 -27,71 -60,93 -32,22 -79,28 -139,18 -24,-5 -45,-10 -63,-17 -18,-7 -35,-16 -53,-27l-2 -8c7,-13 11,-24 14,-35 3,-10 8,-29 13,-54l28 4c-5,33 -7,51 -5,56 2,7 11,16 26,27 15,10 33,17 54,21 28,5 52,2 70,-9 18,-12 29,-28 33,-50 3,-13 2,-26 -3,-37 -5,-11 -13,-20 -24,-26 -10,-7 -34,-17 -72,-30 -33,-11 -56,-20 -67,-27 -19,-12 -32,-27 -40,-46 -7,-18 -9,-40 -4,-66 7,-44 31,-78 70,-101 39,-24 88,-30 147,-20 26,4 49,11 69,20 21,9 42,21 62,37 -6,13 -11,26 -15,38 -4,16 -9,38 -14,66zm1152 -271l9 25c-11,4 -23,9 -35,15 -5,3 -8,6 -10,9 -2,4 -2,8 -1,15 2,9 11,41 29,97 13,38 26,78 40,119 28,79 42,120 43,122 1,1 8,-1 22,-6 28,-9 51,-18 71,-27 11,-5 17,-8 19,-10 1,-1 2,-3 1,-6 0,-3 -4,-21 -13,-55l26 -8c13,38 25,70 38,97l-3 4c-64,19 -126,39 -186,59 -59,21 -126,45 -199,73l-5 -3c-5,-29 -14,-62 -25,-100l25 -8c14,33 21,50 24,52 3,2 6,2 12,2 17,-3 49,-13 97,-29 4,-2 6,-3 6,-5 1,-1 -1,-7 -4,-16l-68 -203c-20,-59 -33,-94 -39,-108 -5,-13 -10,-20 -15,-21 -3,-1 -20,2 -50,10l-8 -26c30,-8 61,-18 94,-30 44,-15 79,-28 105,-38zm-655 591l0 -143 15 28 53 -168c-20,1 -41,2 -65,4l-3 0 0 -35 2 -1c29,-2 54,-4 77,-7l11 -38c3,-10 6,-25 10,-45 1,-5 1,-9 1,-12 -1,-5 -3,-9 -7,-10 -4,-2 -20,-2 -45,-2l-3 -27c21,0 47,-2 78,-4 29,-3 53,-6 70,-9l2 29c-19,3 -32,6 -36,9 -3,3 -7,11 -13,26 -10,28 -23,68 -39,119l-88 284 -20 2zm1301 -416l0 6c-37,20 -65,35 -85,47 -35,20 -65,39 -92,56l-14 -23c24,-16 37,-26 39,-30 2,-5 1,-12 -4,-21 -8,-19 -28,-55 -59,-109 -41,-72 -70,-121 -87,-149 -17,-28 -29,-44 -34,-48 -3,-1 -6,-2 -11,-1 -4,0 -18,6 -40,18l-14 -23 33 -19c21,-11 40,-21 56,-30l92 -56 13 23c-25,16 -38,27 -39,31 -2,5 0,14 6,26 13,25 39,70 77,136 14,26 36,63 64,110 20,33 31,51 34,53 3,3 6,4 10,4 5,-1 20,-7 45,-19l10 18zm0 -487l0 59c-4,-19 -4,-38 0,-59zm0 493l0 -6 3 5 -3 1zm368 -467l0 207c-10,11 -22,21 -35,32 -20,15 -37,27 -55,35 -17,9 -35,16 -55,21l-7 -4c-6,-13 -11,-24 -17,-33 -5,-9 -16,-25 -32,-46l22 -17c21,25 34,38 38,40 7,3 20,2 38,-2 17,-3 35,-12 52,-25 22,-18 36,-37 40,-59 4,-20 -1,-40 -15,-57 -8,-11 -18,-18 -30,-22 -11,-4 -23,-4 -35,-1 -12,4 -35,15 -70,34 -31,18 -53,28 -66,32 -21,6 -41,6 -60,-1 -19,-7 -36,-21 -52,-41 -15,-19 -24,-39 -29,-60l0 -59 0 -1c9,-45 37,-86 84,-122 21,-17 41,-30 61,-39 20,-9 43,-16 69,-21 6,14 12,26 19,36 9,14 22,33 39,56l-22 17c-19,-25 -32,-39 -36,-42 -5,-3 -14,-5 -28,-5 -14,-1 -28,1 -45,8 -16,5 -31,14 -45,24 -24,19 -38,40 -42,64 -4,23 1,44 15,63 14,17 29,26 46,29 16,1 39,-6 69,-23 44,-25 75,-40 94,-44 19,-4 38,-3 57,5 12,4 23,11 33,21zm0 -419l0 56c-4,1 -7,2 -9,2 -5,2 -11,8 -18,16l-19 -15 11 -15 35 -44zm0 626l0 -207c6,5 11,11 16,17 25,32 35,67 29,106 -3,29 -18,56 -45,84zm447 -530c-7,10 -13,19 -18,25 -19,23 -38,36 -59,39 -20,3 -41,-4 -61,-20 -23,-19 -34,-40 -34,-65 -1,-25 5,-45 18,-60 2,-4 6,-8 12,-14 -2,-3 -4,-7 -5,-11l-119 -12c-67,-6 -117,-12 -152,-16 -5,7 -15,20 -29,38l0 56c6,0 13,-1 23,0l94 8 122 12c-11,37 -14,68 -9,91 6,24 19,44 39,60 15,12 32,20 49,22 17,2 33,-1 48,-9 16,-8 34,-26 56,-53l25 -32 0 -59zm0 -136l0 125 -66 -57 -91 -77c-21,-17 -49,-38 -83,-62 -25,-19 -40,-29 -44,-30 -3,-1 -6,0 -10,1 -4,2 -15,12 -32,30l-21 -16c26,-29 48,-55 66,-78 20,-24 41,-51 62,-80l21 17c-14,20 -21,32 -22,36 0,3 0,6 2,8 2,5 15,17 37,36 35,30 62,53 82,69 26,21 59,47 99,78zm0 -701l0 139 -16 -6 -27 57c-14,33 -26,63 -34,92 15,13 33,27 54,41l-11 24c-32,-19 -64,-37 -94,-51 5,-19 12,-36 19,-53 5,-10 15,-31 30,-62 14,-29 26,-56 37,-80 14,-32 28,-66 42,-101zm0 -2369l0 104c-17,10 -34,20 -52,30 -28,17 -48,32 -57,47 -10,14 -14,29 -14,46 2,24 8,46 21,68 17,30 35,49 54,59 15,9 32,12 48,10l0 43c-6,1 -12,1 -17,1 -24,0 -48,-8 -74,-26 -25,-17 -48,-43 -69,-78 -21,-37 -33,-71 -36,-102 -3,-31 0,-57 11,-77 11,-19 33,-39 65,-57l120 -68zm25 666l26 -6c7,25 12,40 15,44 2,2 6,4 10,4 5,1 23,-1 53,-8 50,-10 88,-18 113,-24l131 -31c35,-8 54,-13 59,-17 3,-2 5,-4 6,-7 1,-5 0,-21 -4,-49l26 -6c7,33 11,57 15,73 4,17 9,37 16,59 -50,61 -104,130 -161,207 -39,51 -70,94 -94,130l123 -28c46,-11 86,-21 120,-30 19,-5 31,-10 35,-13 2,-2 4,-5 4,-8 0,-4 -2,-19 -6,-45l26 -6c5,23 9,46 14,68 7,31 14,58 21,83l-26 6c-7,-23 -12,-37 -14,-41 -2,-2 -4,-4 -6,-6 -2,-1 -5,-2 -8,-2 -5,0 -22,3 -49,9l-124 28 -125 28c-34,8 -67,16 -100,25l-6 -3c0,-26 -2,-44 -3,-55 47,-67 106,-148 178,-244 36,-48 67,-88 92,-118l-120 28c-33,7 -73,17 -118,29 -35,8 -54,14 -59,17 -1,2 -3,4 -4,6 -1,5 0,20 4,47l-26 5c-6,-33 -11,-58 -14,-72 -3,-12 -10,-38 -20,-77zm125 667l27 -1c2,29 5,46 8,50 4,4 12,6 25,6 29,1 81,1 157,0 29,-1 72,-2 127,-4 38,-1 59,-2 63,-3 4,-1 6,-4 8,-7 2,-5 4,-21 5,-49l27 0c-1,44 -1,77 -1,100 1,40 2,76 5,109l-27 0c-3,-29 -5,-45 -8,-49 -3,-3 -10,-6 -20,-7 -20,-1 -62,-1 -124,0 -83,1 -140,3 -173,4 -32,1 -52,3 -58,6 -3,2 -5,5 -6,9 -2,4 -3,19 -4,44l-27 0 0 -37c1,-24 1,-45 0,-64l-4 -107zm417 431l27 5c-8,39 -14,75 -20,109 -4,29 -9,61 -13,96l-26 -4c2,-24 2,-39 1,-44 -2,-5 -5,-8 -10,-9 -6,-1 -32,4 -78,15l-231 54 164 99c61,37 97,56 110,58 5,1 9,-1 12,-5 2,-4 7,-19 12,-45l27 4c-8,38 -13,64 -15,77 -2,13 -5,38 -9,73l-27 -4c2,-22 1,-34 -1,-38 -3,-6 -25,-22 -67,-48l-216 -133c-42,-27 -77,-47 -103,-60l8 -46 284 -69c64,-16 108,-27 131,-34 14,-4 23,-7 27,-12 3,-3 8,-16 13,-39zm-567 -1660l0 -104 5 -3c10,-6 35,-21 75,-45 13,-8 21,-14 24,-19 2,-3 2,-6 2,-10 0,-4 -6,-17 -15,-39l23 -13c20,38 38,72 55,100 10,18 26,43 46,75l-23 13c-10,-17 -18,-28 -26,-33 -2,-2 -5,-3 -7,-3 -4,-1 -9,1 -16,3 -11,5 -41,21 -91,49 -17,9 -34,19 -52,29zm0 303l0 -43c3,0 7,-1 10,-1 20,-5 59,-24 117,-57l102 -59c23,-14 36,-23 39,-28 2,-2 3,-5 3,-9 0,-6 -6,-20 -17,-44l23 -13c12,25 24,47 36,67 10,17 23,38 38,63l-23 13c-10,-18 -19,-28 -26,-31 -6,-2 -18,2 -36,10 -42,22 -89,48 -142,78 -33,19 -55,31 -66,36 -20,10 -39,16 -58,18zm0 2101l0 -139 1 -3 16 7c0,13 1,24 4,36 28,17 91,47 188,91 66,29 110,48 132,56 12,5 20,6 25,4 4,-2 13,-16 27,-40l24 11c-22,45 -39,80 -51,107l-70 161c-7,17 -15,32 -22,45l-4 0c-19,-13 -46,-29 -80,-46l10 -23c29,11 44,17 47,16 2,0 6,-3 11,-10 11,-15 24,-38 38,-72 8,-16 16,-35 24,-58 -59,-29 -106,-52 -141,-68 -11,20 -20,40 -28,58 -13,27 -19,43 -20,50 0,3 2,7 6,10 2,3 14,10 35,21l-11 25c-33,-16 -54,-26 -64,-30l-66 -28 11 -25c26,10 42,15 46,14 3,0 6,-2 9,-5 6,-9 17,-30 32,-64 5,-11 10,-24 15,-39 -10,-4 -20,-9 -31,-14 -46,-21 -84,-37 -113,-48zm0 757l0 -59 5 -7 -5 -4 0 -125 7 5c32,25 52,39 61,43 3,1 6,1 8,0 4,-1 15,-11 32,-28l21 17c-29,33 -48,55 -56,65l-73 93zm-4316 -3833c-16,26 -38,48 -64,66 29,19 55,39 80,61 -25,23 -51,43 -80,62 26,16 47,38 66,64 18,-29 38,-56 60,-81 23,24 43,51 62,79 18,-25 39,-47 63,-64 -29,-19 -55,-40 -79,-61 25,-23 52,-45 80,-64 -25,-17 -46,-38 -63,-62 -19,29 -40,56 -63,81 -23,-25 -43,-52 -62,-81zm815 4438c23,19 51,33 81,44 -21,26 -41,53 -58,81 30,14 62,26 94,36 -19,22 -33,50 -43,80 -26,-22 -53,-41 -82,-59 -14,30 -26,61 -36,93 -24,-18 -50,-32 -78,-42 21,-26 40,-53 57,-82 -31,-14 -63,-26 -96,-37 19,-23 33,-49 43,-78 26,22 54,42 83,59 14,-31 26,-62 35,-95zm-1434 -1529l0 69c-11,0 -22,3 -35,8 -22,9 -37,20 -43,35 -7,16 -5,36 5,61 3,9 8,20 15,33 22,-8 42,-15 58,-21l0 101c-14,6 -21,12 -22,16 -3,5 1,22 10,48l-25 9 -21 -57 -16 -44c-5,-14 -13,-33 -24,-59 -11,-24 -18,-42 -22,-53 -17,-44 -22,-79 -15,-103 8,-25 24,-42 50,-52 27,-10 52,-9 75,3 3,2 6,4 10,6zm0 -469l0 92 -24 3c-48,6 -94,12 -137,18 -31,5 -48,8 -52,11 -3,2 -5,4 -6,7 -1,4 -1,19 0,47l-27 3c-3,-41 -7,-78 -12,-113 -4,-34 -8,-65 -13,-96l26 -3c6,29 10,45 14,49 3,3 7,4 12,5 6,0 41,-3 103,-10l116 -13zm0 -566l0 92c-19,-2 -39,-4 -62,-6 -29,-2 -71,-6 -126,-10 -38,-2 -59,-4 -63,-3 -4,1 -7,3 -9,6 -2,5 -6,21 -10,48l-26 -2c5,-43 9,-77 11,-100 3,-40 5,-76 7,-108l26 2c-1,29 1,46 3,50 2,4 9,7 19,9 20,3 61,8 123,13 42,4 77,7 107,9zm0 -385l0 100c-16,-2 -31,-5 -47,-10 -63,-19 -108,-57 -135,-114 -26,-58 -28,-125 -4,-205 8,-26 19,-51 31,-75 13,-24 28,-48 45,-70l5 -1c10,7 20,13 30,18 17,8 38,16 64,26l-8 25c-33,-8 -51,-12 -54,-12 -4,0 -11,4 -21,12 -11,7 -21,19 -31,34 -10,16 -18,34 -25,54 -15,49 -12,92 10,130 21,38 58,65 112,82 9,2 19,5 28,6zm0 477l0 -92c28,3 50,4 66,5 32,2 52,2 58,0 3,-1 5,-4 7,-8 2,-4 5,-18 9,-43l27 2 -5 37c-3,24 -5,45 -6,64l-7 107 -27 -2c1,-30 0,-47 -3,-51 -3,-4 -11,-7 -24,-9 -20,-3 -52,-6 -95,-10zm0 566l0 -92 38 -4c29,-4 62,-8 100,-15 -2,-27 -3,-48 -5,-61 -5,-40 -12,-73 -22,-99 -19,-4 -43,-6 -70,-8l-4 -28c31,1 69,1 114,-1 5,19 9,37 11,54l13 115 6 51c2,24 7,57 15,101l-17 2c-7,-11 -15,-21 -23,-30 -51,4 -103,8 -156,15zm247 1207l0 19 -9 -12 9 -7zm0 -270l0 49 -40 29c-22,15 -34,25 -37,30 -2,3 -3,6 -2,9 0,6 7,21 21,43l-22 15c-15,-23 -28,-44 -41,-63 -12,-17 -27,-36 -45,-59l22 -16c12,17 22,27 28,29 7,1 19,-3 36,-14 25,-15 52,-33 80,-52zm0 -636l0 66c-3,-3 -8,-5 -12,-7 -22,-9 -49,-7 -80,5 -20,8 -36,18 -46,29 -10,12 -16,25 -18,40 -2,14 2,33 10,55l12 30 8 -3 77 -29 49 -20 0 98c-28,11 -62,24 -102,39 -68,26 -115,45 -143,58l-2 1 0 -101c28,-10 46,-17 55,-20l26 -10 -6 -16c-13,-34 -28,-55 -45,-64 -9,-4 -19,-6 -30,-6l0 -69c20,13 39,33 57,60l2 0c-10,-37 -14,-64 -12,-81 1,-17 8,-32 20,-47 11,-15 27,-26 46,-33 24,-9 49,-10 75,-4 22,5 42,15 59,29zm0 -1601l0 182c-15,46 -37,83 -64,110 -29,31 -65,52 -104,61 -26,6 -52,7 -79,4l0 -100c47,10 90,5 129,-15 43,-22 73,-60 90,-116 7,-22 10,-42 12,-62 1,-21 0,-44 -5,-70l10 -5c4,4 7,7 11,11zm0 -597l0 93 -87 -11 87 113 0 61 -182 -236 23 -40 159 20zm0 256l0 -61 21 26c10,-16 22,-34 33,-55 13,-21 24,-42 34,-62l-88 -11 0 -93 209 26c48,6 75,8 81,7 5,-2 15,-12 27,-31l24 13c-19,30 -36,58 -51,84 -18,32 -36,63 -51,92l-23 -13c12,-23 18,-36 18,-40 1,-5 -1,-8 -5,-10 -4,-2 -18,-5 -43,-9l-57 -9c-14,22 -29,48 -45,76 -14,24 -27,46 -38,67l25 30c6,8 17,20 31,35 3,3 7,5 10,7 4,3 8,3 12,0 3,-2 13,-14 28,-36l23 14c-12,17 -25,39 -41,66 -15,26 -26,46 -33,62l-25 -14c9,-18 13,-30 13,-35 -1,-4 -5,-13 -14,-25 -17,-25 -42,-59 -75,-101zm0 523l0 -182c5,4 10,8 15,12 6,27 8,53 6,76 -1,24 -7,50 -15,78 -2,6 -4,11 -6,16zm0 1683l0 -98 29 -11 16 -6c-1,-13 -4,-24 -8,-34 -8,-23 -21,-39 -37,-49l0 -66c4,3 8,6 11,10 20,19 39,50 55,93 4,9 8,22 14,39 6,16 10,29 14,39 4,11 14,34 29,69l-14 6c-11,-9 -21,-15 -28,-19 -16,4 -43,14 -81,27zm359 934l0 137c-9,-11 -16,-20 -21,-29 -9,-17 -12,-35 -9,-52 2,-17 10,-34 25,-51 2,-1 3,-3 5,-5zm0 -548l0 181c-10,11 -22,21 -37,31l-118 81c-9,7 -33,24 -71,51 -11,9 -19,16 -22,22 -1,2 -1,6 -1,10 1,4 7,16 19,37l-22 15c-24,-36 -45,-68 -63,-95 -11,-14 -25,-34 -44,-58l0 -19 13 -9c11,16 20,26 28,31 3,2 5,2 8,2 4,1 9,-1 15,-4 11,-6 39,-25 86,-56 32,-22 65,-45 99,-68 27,-19 45,-36 53,-52 8,-15 12,-31 10,-47 -4,-24 -13,-46 -27,-67 -20,-27 -39,-45 -59,-54 -19,-8 -39,-9 -59,-3 -20,6 -56,29 -111,67l-56 39 0 -49c18,-12 36,-24 54,-37 32,-22 53,-36 63,-42 25,-15 50,-24 74,-25 23,-3 48,4 75,19 27,14 52,39 76,73 6,9 12,18 17,26zm549 -3420l-14 -24c24,-14 37,-23 39,-27 2,-4 2,-10 -1,-17 -3,-11 -17,-38 -40,-79l-84 -152c-29,-51 -46,-79 -50,-83 -2,-2 -5,-3 -8,-3 -5,-1 -21,5 -46,17l-13 -23c38,-19 67,-35 89,-47 35,-19 66,-37 93,-54l13 23c-22,15 -34,24 -38,28 -1,2 -2,5 -2,8 0,4 5,16 14,34 14,28 28,55 44,82l12 24c20,-10 51,-27 93,-50 37,-21 65,-36 82,-47 -34,-61 -56,-100 -69,-119 -7,-10 -12,-16 -17,-17 -6,-1 -22,5 -47,17l-13 -23c47,-24 79,-41 95,-50 28,-16 57,-32 88,-51l13 23c-23,15 -36,24 -39,29 -1,2 -2,4 -2,7 1,5 8,21 21,48 22,41 39,74 53,99l72 126c16,28 26,44 30,48 3,3 7,5 11,5 4,0 19,-6 44,-18l13 24 -31 16c-24,12 -42,22 -55,29 -28,15 -60,34 -96,56l-13 -24c24,-15 37,-24 39,-29 2,-5 0,-14 -6,-26 -11,-22 -35,-67 -72,-136 -22,11 -45,23 -70,37 -40,23 -75,42 -105,60l11 18c27,49 47,85 62,108 10,16 18,25 23,25 5,1 20,-5 46,-17l13 24 -34 17c-21,11 -40,21 -56,30l-92 54zm621 -321l-5 -16c10,-8 18,-17 25,-26 -5,-33 -22,-101 -52,-202 -19,-70 -33,-116 -41,-138 -4,-12 -9,-19 -13,-21 -5,-2 -20,-1 -48,5l-7 -26c48,-12 87,-22 115,-30l168 -50c18,-5 34,-9 49,-12l3 3c2,23 7,54 15,92l-24 6c-9,-29 -15,-45 -17,-46 -2,-2 -7,-3 -15,-2 -18,1 -45,7 -80,17 -17,4 -37,11 -59,19 15,64 28,114 38,152 22,-5 43,-10 62,-16 29,-8 45,-14 51,-17 3,-2 4,-6 5,-11 0,-4 -3,-17 -7,-40l26 -7c9,35 15,57 18,67l21 69 -26 7c-9,-26 -15,-41 -19,-44 -2,-2 -5,-3 -10,-3 -11,1 -34,6 -70,16 -11,4 -24,8 -38,13 2,11 5,22 8,34 17,58 31,103 42,133l61 -16c34,-10 65,-21 93,-33 0,-20 -2,-43 -4,-68l26 -7c5,37 12,73 21,106 -18,7 -36,13 -53,18 -11,3 -33,10 -66,18 -31,8 -60,16 -86,23 -34,10 -69,21 -107,33zm514 -127l-2 -17c12,-7 22,-14 32,-22 -1,-58 -4,-117 -8,-180 -3,-48 -7,-95 -11,-138 -3,-31 -6,-48 -8,-53 -2,-3 -4,-5 -8,-6 -3,-1 -18,-2 -46,-2l-2 -27c41,-2 79,-4 114,-6 34,-2 66,-5 96,-9l2 27c-30,4 -46,8 -50,11 -3,2 -4,6 -5,12 -1,6 1,41 4,103l9 155c2,29 5,63 9,101 28,-1 49,-2 62,-2 40,-3 74,-9 101,-17 4,-19 8,-43 11,-70l28 -2c-2,31 -4,69 -4,114 -21,4 -39,7 -56,8l-115 7 -51 3c-24,1 -58,5 -102,10zm512 -14l3 -27c29,2 46,2 50,-1 4,-3 8,-11 10,-24 5,-28 12,-79 22,-156 3,-29 8,-71 14,-126 4,-38 6,-59 5,-62 -1,-4 -3,-7 -6,-9 -4,-3 -20,-7 -47,-12l3 -27c43,7 76,12 99,15 40,5 76,8 108,11l-3 26c-29,-2 -45,-1 -50,1 -4,3 -7,9 -9,19 -5,20 -10,61 -18,123 -10,82 -17,139 -20,171 -4,33 -4,52 -2,59 1,3 4,5 8,7 4,2 18,6 43,10l-4 27 -37 -5c-23,-4 -44,-7 -63,-10l-106 -10zm-2196 4063l0 -181c15,25 24,49 28,71 6,31 4,56 -5,77 -5,11 -12,22 -23,33zm0 504l0 -137c25,-27 55,-40 91,-42 39,-2 74,12 107,40 4,4 8,8 12,12 4,5 8,10 13,16 -2,8 -5,16 -6,24l-11 1c-2,-3 -6,-7 -8,-10 -2,-3 -5,-6 -7,-8 -16,-14 -34,-20 -54,-17 -20,2 -39,13 -56,33 -20,22 -29,44 -28,63 1,21 12,40 32,58 9,7 20,14 32,22 45,-48 82,-89 112,-123 10,-12 42,-49 94,-113 21,-24 33,-39 35,-44 1,-3 1,-6 0,-10 -2,-4 -14,-18 -36,-40l17 -20c27,26 51,47 70,64 9,7 38,32 89,74l1 0 -18 21c-21,-15 -33,-23 -37,-24 -2,-1 -5,0 -8,2 -5,2 -21,18 -47,46 -26,29 -51,57 -75,84 -44,51 -76,88 -93,111 -19,23 -27,37 -27,41 0,5 5,12 16,23l13 14 -18 20 -26 -25c-16,-15 -30,-27 -40,-35 -13,-12 -35,-31 -67,-56 -17,-14 -29,-24 -36,-30 -15,-13 -27,-24 -36,-35zm2833 -4767l0 58 -65 75c19,8 39,14 61,22l4 1 0 37 -17 -5c-27,-9 -51,-17 -73,-23l-25 30c-7,8 -16,21 -27,38 -3,4 -4,8 -6,11 -1,5 0,8 3,11 3,4 17,10 41,20l-9 26c-19,-8 -43,-17 -73,-26 -28,-9 -50,-16 -68,-20l9 -28c20,6 32,8 38,6 3,-1 11,-7 21,-18 21,-22 49,-54 83,-94l103 -121zm0 193l0 -37c22,7 43,13 64,19l-14 -176 -50 59 0 -58 90 -107 44 15 31 369c4,48 8,75 11,80 3,6 14,13 35,21l-8 25c-33,-12 -63,-23 -93,-32 -35,-12 -68,-21 -100,-30l8 -26c25,7 39,10 43,10 5,-1 7,-3 9,-8 1,-4 1,-18 0,-43l-3 -58c-21,-8 -43,-15 -67,-23zm360 301l9 -15c13,2 25,2 36,1 21,-25 60,-84 116,-173 39,-62 63,-103 75,-124 6,-10 8,-18 7,-23 -2,-5 -14,-16 -36,-32l14 -23c42,28 75,50 99,65l150 92c16,9 29,19 41,28l1 4c-17,17 -36,42 -58,73l-22 -13c16,-27 24,-42 24,-44 0,-3 -3,-7 -9,-13 -13,-13 -35,-28 -66,-48 -15,-9 -33,-20 -54,-31 -37,54 -66,97 -87,130 18,13 36,26 53,36 25,16 41,24 47,26 3,1 7,-1 11,-4 3,-3 11,-13 25,-32l23 15c-20,30 -33,49 -38,58l-37 62 -23 -14c13,-25 20,-39 21,-44 0,-3 -2,-6 -5,-10 -8,-7 -27,-21 -59,-40 -10,-7 -22,-13 -35,-21 -7,10 -13,20 -19,29 -32,52 -56,92 -72,121l53 34c30,19 59,35 87,47 14,-13 31,-30 48,-48l22 14c-24,29 -45,58 -64,87 -18,-9 -34,-18 -49,-27 -10,-6 -29,-19 -58,-38 -27,-18 -52,-34 -74,-48 -31,-19 -63,-38 -97,-57z"/>
  <path class="fil0" d="M4321 4899l-34 88c11,-2 23,-4 34,-4 105,-5 219,62 334,171 43,41 85,86 127,136 75,89 163,170 261,239 104,74 219,135 340,176 93,32 189,53 285,60 53,4 105,5 155,5 164,-1 313,-23 449,-65 126,-39 243,-95 351,-168 120,-81 231,-182 335,-303 15,-18 30,-36 46,-55l11 -13c104,-109 221,-183 366,-184 3,0 7,0 10,0l-10 -26 -67 -171c-81,-134 -196,-101 -299,-35 -19,13 -39,27 -57,41 -17,13 -33,26 -48,39 -100,85 -195,163 -287,232 -118,88 -233,160 -351,210 -21,9 -42,17 -64,25 -128,45 -256,66 -385,63 -145,-3 -292,-36 -440,-102 -112,-49 -226,-117 -340,-203 -71,-54 -142,-114 -214,-182 -58,-55 -119,-99 -174,-133 -31,-19 -60,-34 -86,-47 -97,-34 -163,-7 -199,80l-49 126zm0 121c-46,7 -81,36 -80,97 1,45 36,75 80,94 52,23 117,32 157,37 70,5 132,16 177,37 32,14 56,34 69,61 -3,-14 -6,-29 -9,-43 -3,-13 -3,-24 -11,-34 -17,-19 -33,-37 -49,-54 -100,-106 -181,-156 -253,-185 -28,-9 -56,-13 -81,-10zm334 -609c19,-53 36,-106 49,-159 30,-133 -1,-207 -49,-252 -40,-39 -93,-56 -132,-69l-165 0c74,75 101,142 100,217 -1,133 -81,251 -136,366l-1 1c-63,132 -108,255 -138,378 -40,166 -44,351 79,486 20,17 39,34 59,49 75,56 157,93 253,97 32,-2 60,-11 81,-25 62,-40 74,-116 0,-167l-4 -3c-35,-23 -87,-31 -141,-39 -62,-10 -132,-19 -189,-40 -88,-33 -144,-95 -89,-233 30,-73 60,-148 89,-222l20 -49c36,-88 142,-120 224,-95 28,-80 61,-161 90,-241zm-334 -463c-92,-67 -147,33 -51,123 20,18 37,35 51,50 68,73 85,117 80,148 14,-46 25,-104 21,-153 -4,-47 -27,-94 -68,-138 -11,-13 -22,-22 -33,-30zm0 377c22,-1 39,-11 46,-37 1,-38 -10,-74 -46,-116 -13,-15 -29,-32 -49,-50 -3,-2 -5,-4 -8,-6 -76,-67 -136,-222 14,-223l43 0 28 0 154 0c86,-85 129,-188 152,-287 31,-133 25,-260 39,-329 -14,12 -27,25 -39,41 -29,38 -50,91 -57,173l-34 0c-17,-111 -68,-187 -143,-238 70,156 39,303 -85,437 -5,5 -10,11 -15,16 -125,141 -169,242 -179,328 -9,75 -1,153 49,212 37,45 91,79 130,79zm1062 1072c-30,3 -59,21 -72,52 -25,64 2,123 72,125 4,1 8,0 12,0 10,-17 24,-34 28,-54 3,-11 0,-20 -17,-28l4 -6 80 36 -4 6c-32,-9 -48,54 -64,77 -12,1 -25,1 -39,0 -24,-2 -50,-9 -69,-21 -48,-29 -72,-96 -45,-150 23,-47 68,-71 114,-70 22,1 44,7 63,21 13,9 33,39 50,26l12 6 -28 64 -12 -4c-3,-58 -45,-83 -85,-80zm-728 -399l71 -71c16,-21 27,-20 14,-52l5 -4 71 70 -4 4c-27,-11 -39,-7 -53,5 -26,22 -49,48 -72,72 -28,29 -13,43 11,66 23,23 36,29 66,17l7 11 -54 28 -62 -60 -60 -60 9 -9c19,13 21,13 36,-2l15 -15zm388 245l5 -8c13,-25 21,-26 5,-49l7 -8 80 50 -6 9c-33,-4 -37,10 -52,35l-35 59 -4 7c-13,20 -28,43 -13,62l-4 10 -80 -50 6 -9c28,2 33,-17 48,-38l43 -70zm780 252l-2 -6 -40 93 42 0 34 0 -34 -87zm800 -183c48,55 139,-2 87,-75l-38 -54c-15,-20 -22,-39 -49,-30l-3 1 -4 -4 7 -5 57 -41 4 8c-4,3 -8,6 -9,9 -5,19 47,78 61,97 28,40 31,90 -7,124 -34,29 -72,37 -106,19 -9,-4 -18,-10 -26,-18 -6,-6 -11,-13 -17,-21l-29 -41c-16,-23 -24,-48 -58,-34l-5 -6 78 -56 3 5c-25,20 -9,38 6,59l45 60c1,1 2,2 3,3zm335 -218c49,9 89,-54 19,-66 -6,-1 -13,-1 -19,-2 -20,-2 -43,-3 -57,-12 -24,-15 -40,-53 -28,-78 15,-31 69,-33 85,-45 1,-1 3,-3 3,-4l12 -3 25 69 -13 2c-13,-19 -13,-24 -25,-29l-2 -1c-54,-18 -84,48 -19,64l19 3 15 2c17,2 31,5 42,11 13,6 22,14 26,27 10,23 5,46 -8,63 -5,6 -11,11 -18,15 -8,6 -18,9 -28,11 -9,1 -20,1 -29,3 -13,2 -22,6 -23,12l-7 3 -26 -72 12 -3c14,18 29,27 44,30zm-1135 346l12 1 81 178c8,19 13,23 30,31l0 10 -88 0 0 -8c36,-1 19,-27 1,-44l-36 0 -49 0c-14,18 -33,40 7,43l0 9 -80 1 1 -12c2,-2 12,-4 14,-6 47,-68 74,-146 100,-203l7 0zm449 60l16 14 20 -177 58 -22 3 8c-20,10 -12,34 -2,60l31 79c10,27 14,40 43,47l3 6 -88 34 -2 -6c34,-19 18,-39 8,-65l-27 -58 -13 143 -26 9 -24 -18 -98 -75 24 61c12,26 13,49 51,44l1 6 -71 29 -3 -8c3,-3 6,-4 6,-8 5,-35 -46,-134 -59,-168 -3,-6 -5,-8 -19,-10l-3 -7 59 -23 112 105zm743 -276c-45,61 -61,125 -44,194 7,-43 23,-74 44,-95 65,-65 177,-47 248,-56 50,-7 89,-23 118,-43 96,-66 85,-184 0,-207 -32,-8 -75,-3 -127,25 -109,57 -190,118 -239,182zm366 -1060c21,-32 45,-64 69,-96 74,-111 8,-168 -69,-115 -29,19 -59,55 -84,109 -34,97 -14,200 30,273l14 0c-20,-57 3,-114 40,-171zm0 88c-5,19 -12,53 0,69 2,2 4,4 6,5 9,5 21,2 36,-6 93,-50 142,-158 129,-263 -11,-80 -46,-176 -171,-343 -23,-31 -50,-65 -80,-102 -68,-103 -93,-220 -27,-368 -75,55 -127,133 -146,244l-33 -2c-6,-75 -30,-142 -80,-200 -5,-6 -11,-13 -18,-19 9,41 15,78 18,116 4,42 6,85 7,134 14,110 36,221 166,376 70,2 128,5 193,7l42 1c130,22 93,146 35,219 -35,43 -62,86 -75,126l-2 6zm-366 -225c-45,78 -36,192 0,324 26,95 66,199 111,305 48,-8 96,-15 171,29 21,19 53,73 84,138 51,104 100,237 101,296 -9,65 -41,114 -101,147 -50,26 -120,40 -213,40 -79,-4 -129,26 -153,89 -8,22 -13,49 -14,79 3,8 8,15 14,22 50,49 196,64 366,-60l4 -3c241,-200 162,-492 41,-797 -13,-31 -28,-64 -45,-98 -96,-197 -229,-432 -33,-610l-180 0c-76,16 -125,51 -153,99z"/>
 </g>
</svg>
